<svg width="120" height="120" viewBox="0 0 120 120" fill="none" xmlns="http://www.w3.org/2000/svg">
<path fill-rule="evenodd" clip-rule="evenodd" d="M45.7732 76.0825C66.9536 76.0825 84.1237 59.0508 84.1237 38.0412C84.1237 17.0317 66.9536 0 45.7732 0C24.5928 0 7.42268 17.0317 7.42268 38.0412C7.42268 59.0508 24.5928 76.0825 45.7732 76.0825ZM45.976 74.0696C62.1135 74.0696 75.1954 57.849 75.1954 37.8399C75.1954 17.8308 62.1135 1.6102 45.976 1.6102C29.8386 1.6102 16.7567 17.8308 16.7567 37.8399C16.7567 57.849 29.8386 74.0696 45.976 74.0696Z" fill="#FC7324"/>
<path fill-rule="evenodd" clip-rule="evenodd" d="M62.8059 80.4312V46.5204C62.8299 46.1368 62.7194 45.4848 62.0845 45.9451C61.4497 46.4053 56.3857 50.3558 53.933 52.2736C53.6444 52.4413 53.0962 53.0791 53.2116 54.2873C53.327 55.4954 57.6841 97.8439 59.8483 118.867C59.9204 119.203 60.2811 119.874 61.1468 119.874C62.2288 119.874 62.8781 118.867 62.8781 117.357C62.8781 116.149 63.1186 95.0872 63.2388 84.7074C65.2586 83.6527 71.0152 84.1752 77.8827 94.7036C79.0046 96.4236 80.0982 98.151 81.1744 99.8509C88.3327 111.158 94.7217 121.249 103.564 119.874C112.437 118.494 113.447 111.532 112.076 106.857C110.521 101.555 103.78 100.385 103.78 100.745C103.78 100.848 103.988 101.016 104.32 101.285C105.145 101.953 106.739 103.245 107.82 105.707C110.218 111.172 108.613 117.791 103.203 118.58C96.7312 119.522 90.8515 106.917 86.515 97.6195C85.5251 95.4976 84.6158 93.5478 83.798 91.9709C80.5106 85.6312 72.1892 82.4929 68.1472 82.0169C73.2754 80.0256 80.2998 75.3239 87.3062 64.8667C91.8679 58.0584 95.6487 53.0087 98.7956 50.0198C100.96 48.3435 104.124 47.0442 105.944 49.3251C108.469 52.4894 104.79 57.0917 103.564 58.2425C103.034 58.7398 110.778 56.0132 110.778 50.8353C110.778 44.4518 106.317 42.9761 102.132 44.4337C100.722 44.8654 99.3237 45.7539 97.9438 46.9158C94.2498 50.0263 89.9453 55.7487 84.9066 63.269C75.5407 77.2481 66.4685 80.068 62.8059 80.4312Z" fill="#FC7324"/>
</svg>
