<svg width="20" height="20" viewBox="0 0 20 20" fill="none" xmlns="http://www.w3.org/2000/svg">
<g clip-path="url(#clip0_430_1336)">
<path d="M5.8335 9.16667V10.8333H14.1668V9.16667C14.1668 7.61667 15.2335 6.325 16.6668 5.95V5C16.6668 3.625 15.5418 2.5 14.1668 2.5H5.8335C4.4585 2.5 3.3335 3.625 3.3335 5V5.95C4.76683 6.325 5.8335 7.61667 5.8335 9.16667Z" fill="black"/>
<path d="M17.5002 7.5C16.5835 7.5 15.8335 8.25 15.8335 9.16667V12.5H4.16683V9.16667C4.16683 8.25 3.41683 7.5 2.50016 7.5C1.5835 7.5 0.833496 8.25 0.833496 9.16667V13.3333C0.833496 14.7083 1.9585 15.8333 3.3335 15.8333V16.6667C3.3335 17.125 3.7085 17.5 4.16683 17.5C4.62516 17.5 5.00016 17.125 5.00016 16.6667V15.8333H15.0002V16.6667C15.0002 17.125 15.3752 17.5 15.8335 17.5C16.2918 17.5 16.6668 17.125 16.6668 16.6667V15.8333C18.0418 15.8333 19.1668 14.7083 19.1668 13.3333V9.16667C19.1668 8.25 18.4168 7.5 17.5002 7.5Z" fill="black"/>
</g>
<defs>
<clipPath id="clip0_430_1336">
<rect width="20" height="20" fill="white"/>
</clipPath>
</defs>
</svg>
