<svg width="18" height="18" viewBox="0 0 18 18" fill="none" xmlns="http://www.w3.org/2000/svg">
<g clip-path="url(#clip0_430_1354)">
<path d="M17.1818 0.000732422C16.7299 0.000732422 16.3636 0.36699 16.3636 0.818924V2.72703H1.63635V0.818924C1.63635 0.367025 1.27002 0.000732422 0.818156 0.000732422C0.366293 0.000732422 0 0.36699 0 0.818924V17.1816C0 17.6334 0.366328 17.9998 0.818191 17.9998C1.27005 17.9998 1.63638 17.6334 1.63638 17.1816V10.9088H16.3637V17.1816C16.3637 17.6334 16.73 17.9997 17.1818 17.9997C17.6337 17.9997 18 17.6334 18 17.1816V0.818924C18 0.36699 17.6337 0.000732422 17.1818 0.000732422ZM16.3637 4.36338V9.27246H14.7273V4.36338H16.3637ZM13.0909 4.36338V9.27246H11.4546V4.36338H13.0909ZM9.81819 4.36338V9.27246H8.18184V4.36338H9.81819ZM6.54546 4.36338V9.27246H4.90911V4.36338H6.54546ZM3.27273 4.36338V9.27246H1.63635V4.36338H3.27273Z" fill="black"/>
<path d="M17.1818 0.000488281C16.7299 0.000488281 16.3636 0.366746 16.3636 0.81868V2.72678H9V4.36313H9.81819V9.27221H9V10.9086H16.3637V17.1813C16.3637 17.6331 16.73 17.9995 17.1818 17.9995C17.6337 17.9995 18 17.6331 18 17.1813V0.81868C18 0.366746 17.6337 0.000488281 17.1818 0.000488281ZM13.0909 9.27225H11.4546V4.36313H13.0909V9.27225ZM16.3637 9.27225H14.7273V4.36313H16.3637V9.27225Z" fill="black"/>
<path d="M17.1818 9.27222H0.818191C0.366328 9.27222 0 9.63847 0 10.0904V15.5449C0 15.9967 0.366328 16.3631 0.818191 16.3631H17.1818C17.6337 16.3631 18 15.9967 18 15.5449V10.0904C18 9.63847 17.6337 9.27222 17.1818 9.27222Z" fill="black"/>
<path d="M17.1818 9.27222H9V16.3631H17.1818C17.6337 16.3631 18 15.9967 18 15.5449V10.0904C18 9.63847 17.6337 9.27222 17.1818 9.27222Z" fill="black"/>
</g>
<defs>
<clipPath id="clip0_430_1354">
<rect width="18" height="18" fill="white"/>
</clipPath>
</defs>
</svg>
