<svg width="22" height="22" viewBox="0 0 22 22" fill="none" xmlns="http://www.w3.org/2000/svg">
<g clip-path="url(#clip0_212_148)">
<path d="M9.16667 9.16659V10.9999H7.33333V9.16659H9.16667ZM14.6667 10.9999V9.16659H12.8333V10.9999H14.6667ZM19.25 12.8333V20.1666H2.75V12.8333H3.66667V9.16659C3.66667 5.11492 6.94833 1.83325 11 1.83325C15.0517 1.83325 18.3333 5.11492 18.3333 9.16659V12.8333H19.25ZM6.41667 14.6666H4.58333V18.3333H6.41667V14.6666ZM10.0833 14.6666H8.25V18.3333H10.0833V14.6666ZM10.0833 3.73992C7.48 4.17992 5.5 6.44409 5.5 9.16659V12.8333H10.0833V3.73992ZM11.9167 12.8333H16.5V9.16659C16.5 6.44409 14.52 4.17992 11.9167 3.73992V12.8333ZM13.75 14.6666H11.9167V18.3333H13.75V14.6666ZM17.4167 14.6666H15.5833V18.3333H17.4167V14.6666Z" fill="#212121"/>
</g>
<defs>
<clipPath id="clip0_212_148">
<rect width="22" height="22" fill="white"/>
</clipPath>
</defs>
</svg>
