<svg width="22" height="22" viewBox="0 0 22 22" fill="none" xmlns="http://www.w3.org/2000/svg">
<g clip-path="url(#clip0_191_203)">
<path d="M9.16667 9.16671V11H7.33333V9.16671H9.16667ZM14.6667 11V9.16671H12.8333V11H14.6667ZM19.25 12.8334V20.1667H2.75V12.8334H3.66667V9.16671C3.66667 5.11504 6.94833 1.83337 11 1.83337C15.0517 1.83337 18.3333 5.11504 18.3333 9.16671V12.8334H19.25ZM6.41667 14.6667H4.58333V18.3334H6.41667V14.6667ZM10.0833 14.6667H8.25V18.3334H10.0833V14.6667ZM10.0833 3.74004C7.48 4.18004 5.5 6.44421 5.5 9.16671V12.8334H10.0833V3.74004ZM11.9167 12.8334H16.5V9.16671C16.5 6.44421 14.52 4.18004 11.9167 3.74004V12.8334ZM13.75 14.6667H11.9167V18.3334H13.75V14.6667ZM17.4167 14.6667H15.5833V18.3334H17.4167V14.6667Z" fill="#636363"/>
</g>
<defs>
<clipPath id="clip0_191_203">
<rect width="22" height="22" fill="white"/>
</clipPath>
</defs>
</svg>
