<svg width="36" height="36" viewBox="0 0 36 36" fill="none" xmlns="http://www.w3.org/2000/svg">
<g clip-path="url(#clip0_151_1457)">
<path d="M18 3C9.72 3 3 9.72 3 18C3 26.28 9.72 33 18 33C26.28 33 33 26.28 33 18C33 9.72 26.28 3 18 3ZM19.5 6.105C24.105 6.675 27.855 9.885 29.31 14.145L19.5 8.475V6.105ZM12 7.62C13.77 6.585 16.995 6.03 16.5 6.09V17.115L12 19.71V7.62ZM6.945 22.65C6.345 21.21 6 19.65 6 18C6 14.97 7.14 12.21 9 10.095V21.465L6.945 22.65ZM8.46 25.245L18 19.725L22.5 22.32L12.03 28.365C10.635 27.57 9.42 26.52 8.46 25.245ZM18 30C17.19 30 16.395 29.91 15.63 29.76L25.5 24.06L27.54 25.23C25.35 28.125 21.9 30 18 30ZM19.5 17.13V11.94L30 18.015C30 19.665 29.655 21.225 29.055 22.65L19.5 17.13Z" fill="#FC7324"/>
</g>
<defs>
<clipPath id="clip0_151_1457">
<rect width="36" height="36" fill="white"/>
</clipPath>
</defs>
</svg>
