<svg width="20" height="20" viewBox="0 0 20 20" fill="none" xmlns="http://www.w3.org/2000/svg">
<g clip-path="url(#clip0_430_1264)">
<path d="M9.77969 16.4566C9.77367 16.4277 9.76496 16.3988 9.75348 16.3708C9.74199 16.3433 9.72774 16.3167 9.71125 16.2919C9.69473 16.2666 9.67547 16.2432 9.65434 16.2221C9.6332 16.2009 9.60984 16.1817 9.58461 16.1647C9.55984 16.1483 9.5327 16.134 9.50524 16.1225C9.47774 16.111 9.44883 16.1024 9.41942 16.0963C9.36024 16.0844 9.29918 16.0844 9.24 16.0963C9.21109 16.1024 9.18219 16.111 9.15418 16.1225C9.12664 16.134 9.10004 16.1483 9.07527 16.1647C9.05004 16.1817 9.02664 16.201 9.00555 16.2221C8.98395 16.2432 8.96516 16.2666 8.9482 16.2919C8.93168 16.3167 8.91746 16.3433 8.90598 16.3708C8.89449 16.3988 8.88578 16.4277 8.8798 16.4566C8.87383 16.4864 8.87109 16.5167 8.87109 16.5465C8.87109 16.6672 8.91977 16.7856 9.00559 16.8709C9.02668 16.892 9.05008 16.9113 9.07535 16.9278C9.10012 16.9443 9.12676 16.9585 9.15426 16.97C9.18227 16.9815 9.21117 16.9902 9.24008 16.9962C9.26988 17.0022 9.30024 17.0054 9.33 17.0054C9.35984 17.0054 9.39016 17.0022 9.41949 16.9962C9.44891 16.9902 9.47781 16.9815 9.50531 16.97C9.53281 16.9585 9.55992 16.9443 9.58469 16.9278C9.60992 16.9113 9.63332 16.892 9.65442 16.8709C9.67551 16.8499 9.69481 16.8264 9.71133 16.8011C9.72781 16.7764 9.74207 16.7497 9.75356 16.7218C9.76504 16.6942 9.77371 16.6654 9.77973 16.636C9.7857 16.6066 9.78887 16.5763 9.78887 16.5465C9.78883 16.5167 9.78567 16.4864 9.77969 16.4566Z" fill="black"/>
<path d="M19.0599 12.2323L15.2752 2.02868C15.0414 1.39821 14.4326 0.974533 13.7601 0.974533H13.0316L12.5414 0.22293C12.5238 0.195899 12.5029 0.172032 12.4806 0.149805C12.4731 0.141563 12.4649 0.134024 12.4569 0.126367C12.4564 0.125938 12.456 0.125469 12.4555 0.125C12.3711 0.0457813 12.2596 0 12.1418 0H7.85799C7.74033 0 7.6288 0.0457423 7.54451 0.124844C7.54349 0.125703 7.54263 0.126719 7.54162 0.127578C7.53404 0.134766 7.52638 0.141836 7.51931 0.14961C7.49697 0.171914 7.47603 0.195821 7.45837 0.222891L6.96814 0.974533H6.23962C5.56716 0.974533 4.95829 1.39813 4.72458 2.02868L0.939885 12.2323C0.855119 12.4608 0.963752 12.7156 1.18719 12.8127L3.49239 13.8146C3.55071 13.84 3.61298 13.8527 3.67528 13.8527C3.7347 13.8527 3.79419 13.8411 3.85024 13.818C3.96505 13.7707 4.05575 13.6788 4.10165 13.5634L5.91915 8.99408L6.02447 9.40545L6.14743 9.88631L5.73337 11.054L5.3047 12.263C4.56188 14.3578 4.18532 16.5469 4.18532 18.7696V19.5412C4.18532 19.7946 4.39079 20 4.64419 20H10.8582H15.3555C15.6089 20 15.8144 19.7946 15.8144 19.5412V18.7696C15.8144 16.547 15.4378 14.3578 14.695 12.2629L14.2664 11.054L13.8523 9.88627L13.9753 9.40541L14.0806 8.99404L15.8981 13.5634C15.9441 13.6788 16.0348 13.7707 16.1495 13.818C16.2056 13.8411 16.2651 13.8526 16.3245 13.8526C16.3868 13.8526 16.4491 13.84 16.5074 13.8146L18.8126 12.8126C19.0361 12.7156 19.1446 12.4608 19.0599 12.2323ZM11.5138 0.917697L9.9999 5.6631L8.48595 0.917697H11.5138ZM6.04329 7.05626C5.84521 7.04376 5.66114 7.16001 5.58767 7.34462L3.42399 12.7842L1.95137 12.1442L5.58505 2.34774C5.68599 2.07532 5.94907 1.89227 6.23962 1.89227H7.21669C7.37173 1.89227 7.51634 1.81395 7.60103 1.6841L7.69974 1.53274L9.56256 7.35556C9.56264 7.35587 9.56275 7.35627 9.56283 7.35658L10.0351 8.83275H6.82517L6.45849 7.40044C6.40919 7.20787 6.24158 7.06896 6.04329 7.05626ZM7.07123 9.79439L7.05998 9.75049H7.3858V10.7486H6.81544L7.05908 10.0613C7.08955 9.97553 7.09376 9.88256 7.07123 9.79439ZM10.3992 17.5698V19.0823H5.1031V18.7696C5.1031 16.6518 5.46193 14.5658 6.16966 12.5697L6.48997 11.6663H7.38572V13.3948C7.38572 13.6482 7.59119 13.8537 7.84459 13.8537C8.09799 13.8537 8.30345 13.6482 8.30345 13.3948V11.6663H8.87096V15.1096C8.87096 15.363 9.07642 15.5685 9.32982 15.5685C9.58322 15.5685 9.78869 15.363 9.78869 15.1096V11.6663H10.4019L10.3992 17.5698ZM8.30349 10.7486V9.75049H10.6637H12.9398L12.9285 9.79439C12.9233 9.81494 12.9198 9.83572 12.9175 9.85666C12.9167 9.86338 12.9167 9.8701 12.9162 9.87686C12.9155 9.88732 12.9143 9.89772 12.9143 9.90818C12.9143 9.91318 12.9148 9.91818 12.9149 9.92318C12.9151 9.92678 12.9152 9.93029 12.9154 9.93389C12.9165 9.95358 12.9187 9.97322 12.9224 9.99268C12.923 9.99557 12.9237 9.99838 12.9242 10.0012C12.9285 10.0215 12.9337 10.0417 12.9407 10.0614L13.1844 10.7486H10.8611H8.30349V10.7486ZM14.8967 18.7696V19.0823H11.3171V17.57L11.3197 11.6662H13.5098L13.8301 12.5696C14.5378 14.5658 14.8967 16.6518 14.8967 18.7696ZM16.5758 12.7842L14.4121 7.34462C14.3423 7.16919 14.1728 7.05537 13.986 7.05537C13.9762 7.05537 13.9663 7.05568 13.9564 7.05634C13.7581 7.06904 13.5905 7.20794 13.5412 7.40048L13.1746 8.83279H10.9987L10.4817 7.21673L12.3 1.53278L12.3987 1.68414C12.4834 1.81399 12.628 1.89231 12.7831 1.89231H13.7601C14.0507 1.89231 14.3137 2.07536 14.4147 2.34778C14.4148 2.34782 14.4148 2.34782 14.4148 2.34786L18.0484 12.1442L16.5758 12.7842Z" fill="black"/>
<path d="M8.29434 14.7417C8.28887 14.7129 8.27965 14.684 8.26817 14.6559C8.25668 14.6284 8.24246 14.6018 8.22594 14.577C8.20942 14.5518 8.19016 14.5284 8.16903 14.5072C8.14789 14.4861 8.12453 14.4668 8.09926 14.4499C8.07449 14.4334 8.04785 14.4191 8.01988 14.4076C7.99235 14.3962 7.96348 14.3875 7.93406 14.3816C7.87488 14.3696 7.81383 14.3696 7.75465 14.3816C7.72574 14.3875 7.69684 14.3962 7.66891 14.4076C7.64133 14.4191 7.61473 14.4334 7.58992 14.4499C7.56469 14.4669 7.54129 14.4861 7.52016 14.5072C7.49906 14.5283 7.47977 14.5518 7.46281 14.577C7.44629 14.6018 7.43207 14.6284 7.42106 14.6559C7.40957 14.6839 7.40039 14.7128 7.39488 14.7417C7.38891 14.7716 7.38574 14.8019 7.38574 14.8317C7.38574 14.8615 7.38891 14.8918 7.39488 14.9212C7.40039 14.9505 7.40957 14.9794 7.42106 15.007C7.43207 15.0349 7.44629 15.0616 7.46281 15.0863C7.47981 15.1116 7.49906 15.135 7.52016 15.1561C7.54125 15.1772 7.56465 15.1965 7.58992 15.213C7.61469 15.2295 7.64133 15.2437 7.66891 15.2552C7.69684 15.2667 7.72574 15.2754 7.75465 15.2813C7.78449 15.2873 7.81481 15.2905 7.84465 15.2905C7.87442 15.2905 7.90477 15.2873 7.93406 15.2813C7.96348 15.2753 7.99238 15.2667 8.01988 15.2552C8.04789 15.2437 8.07449 15.2295 8.09926 15.213C8.12449 15.1965 8.14789 15.1772 8.16903 15.1561C8.19012 15.135 8.20942 15.1116 8.22594 15.0863C8.24246 15.0616 8.25668 15.0349 8.26817 15.007C8.27965 14.9794 8.28883 14.9505 8.29434 14.9212C8.30031 14.8917 8.30352 14.8615 8.30352 14.8317C8.30352 14.8019 8.30028 14.7716 8.29434 14.7417Z" fill="black"/>
</g>
<defs>
<clipPath id="clip0_430_1264">
<rect width="20" height="20" fill="white"/>
</clipPath>
</defs>
</svg>
