<svg width="36" height="36" viewBox="0 0 36 36" fill="none" xmlns="http://www.w3.org/2000/svg">
<g clip-path="url(#clip0_151_1491)">
<path d="M23.25 8.25C24.9 8.25 26.25 6.9 26.25 5.25C26.25 3.6 24.9 2.25 23.25 2.25C21.6 2.25 20.25 3.6 20.25 5.25C20.25 6.9 21.6 8.25 23.25 8.25ZM7.5 18C3.3 18 0 21.3 0 25.5C0 29.7 3.3 33 7.5 33C11.7 33 15 29.7 15 25.5C15 21.3 11.7 18 7.5 18ZM7.5 30.75C4.65 30.75 2.25 28.35 2.25 25.5C2.25 22.65 4.65 20.25 7.5 20.25C10.35 20.25 12.75 22.65 12.75 25.5C12.75 28.35 10.35 30.75 7.5 30.75ZM16.2 15.75L19.8 12.15L21 13.35C22.95 15.3 25.5 16.5 28.65 16.5V13.5C26.4 13.5 24.6 12.6 23.25 11.25L20.4 8.4C19.65 7.8 18.9 7.5 18 7.5C17.1 7.5 16.35 7.8 15.9 8.4L11.7 12.6C11.1 13.2 10.8 13.95 10.8 14.7C10.8 15.6 11.1 16.35 11.7 16.8L16.5 21V28.5H19.5V19.2L16.2 15.75ZM28.5 18C24.3 18 21 21.3 21 25.5C21 29.7 24.3 33 28.5 33C32.7 33 36 29.7 36 25.5C36 21.3 32.7 18 28.5 18ZM28.5 30.75C25.65 30.75 23.25 28.35 23.25 25.5C23.25 22.65 25.65 20.25 28.5 20.25C31.35 20.25 33.75 22.65 33.75 25.5C33.75 28.35 31.35 30.75 28.5 30.75Z" fill="#FC7324"/>
</g>
<defs>
<clipPath id="clip0_151_1491">
<rect width="36" height="36" fill="white"/>
</clipPath>
</defs>
</svg>
