<svg width="36" height="36" viewBox="0 0 36 36" fill="none" xmlns="http://www.w3.org/2000/svg">
<g clip-path="url(#clip0_236_2385)">
<path d="M18.0002 22.8C20.6512 22.8 22.8002 20.6509 22.8002 18C22.8002 15.349 20.6512 13.2 18.0002 13.2C15.3492 13.2 13.2002 15.349 13.2002 18C13.2002 20.6509 15.3492 22.8 18.0002 22.8Z" fill="#FC7324"/>
<path d="M13.5 3L10.755 6H6C4.35 6 3 7.35 3 9V27C3 28.65 4.35 30 6 30H30C31.65 30 33 28.65 33 27V9C33 7.35 31.65 6 30 6H25.245L22.5 3H13.5ZM18 25.5C13.86 25.5 10.5 22.14 10.5 18C10.5 13.86 13.86 10.5 18 10.5C22.14 10.5 25.5 13.86 25.5 18C25.5 22.14 22.14 25.5 18 25.5Z" fill="#FC7324"/>
</g>
<defs>
<clipPath id="clip0_236_2385">
<rect width="36" height="36" fill="white"/>
</clipPath>
</defs>
</svg>
