<svg width="36" height="36" viewBox="0 0 36 36" fill="none" xmlns="http://www.w3.org/2000/svg">
<g clip-path="url(#clip0_236_2389)">
<path d="M28.38 9.015C28.08 8.13 27.24 7.5 26.25 7.5H9.75C8.76 7.5 7.935 8.13 7.62 9.015L4.5 18V30C4.5 30.825 5.175 31.5 6 31.5H7.5C8.325 31.5 9 30.825 9 30V28.5H27V30C27 30.825 27.675 31.5 28.5 31.5H30C30.825 31.5 31.5 30.825 31.5 30V18L28.38 9.015ZM9.75 24C8.505 24 7.5 22.995 7.5 21.75C7.5 20.505 8.505 19.5 9.75 19.5C10.995 19.5 12 20.505 12 21.75C12 22.995 10.995 24 9.75 24ZM26.25 24C25.005 24 24 22.995 24 21.75C24 20.505 25.005 19.5 26.25 19.5C27.495 19.5 28.5 20.505 28.5 21.75C28.5 22.995 27.495 24 26.25 24ZM7.5 16.5L9.75 9.75H26.25L28.5 16.5H7.5Z" fill="#FC7324"/>
</g>
<defs>
<clipPath id="clip0_236_2389">
<rect width="36" height="36" fill="white"/>
</clipPath>
</defs>
</svg>
