<svg width="20" height="20" viewBox="0 0 20 20" fill="none" xmlns="http://www.w3.org/2000/svg">
<path d="M10.0002 9.41382L8.73047 9.99995L10.0002 10.5861L11.2699 9.99995L10.0002 9.41382Z" fill="black"/>
<path d="M5.21729 6.73926V13.261H14.7825V6.73926H5.21729ZM13.0992 10.5922L10.2731 11.8965C10.1865 11.9366 10.0931 11.9566 9.9999 11.9566C9.9067 11.9566 9.8133 11.9366 9.7267 11.8965L6.90061 10.5922C6.66959 10.4856 6.52166 10.2545 6.52166 10.0001C6.52166 9.74578 6.66963 9.51461 6.90061 9.40805L9.7267 8.10371C9.8999 8.02344 10.0999 8.02344 10.2731 8.10371L13.0992 9.40805C13.3303 9.51461 13.4782 9.74578 13.4782 10.0001C13.4782 10.2545 13.3302 10.4856 13.0992 10.5922Z" fill="black"/>
<path d="M19.3478 6.73926C19.7081 6.73926 20 6.44734 20 6.08707C20 5.7268 19.7081 5.43488 19.3478 5.43488H18.6956V4.13055H19.3478C19.7081 4.13055 20 3.83863 20 3.47836C20 3.11809 19.7081 2.82617 19.3478 2.82617H18.0435H2.39129H1.95652H0.652187C0.291914 2.82621 0 3.11812 0 3.4784C0 3.83867 0.291914 4.13059 0.652187 4.13059H1.30437V5.43492H0.652187C0.291914 5.43488 0 5.7268 0 6.08707C0 6.44734 0.291914 6.73926 0.652187 6.73926H1.30437V8.04359H0.652187C0.291914 8.04359 0 8.33551 0 8.69578C0 9.05605 0.291914 9.34797 0.652187 9.34797H1.30437V10.6523H0.652187C0.291914 10.6523 0 10.9442 0 11.3045C0 11.6647 0.291914 11.9566 0.652187 11.9566H1.30437V13.261H0.652187C0.291914 13.261 0 13.5529 0 13.9132C0 14.2734 0.291914 14.5654 0.652187 14.5654H1.30437V15.8697H0.652187C0.291914 15.8697 0 16.1616 0 16.5219C0 16.8821 0.291914 17.1741 0.652187 17.1741H1.95652H2.39129H18.0435H19.3478C19.7081 17.1741 20 16.8821 20 16.5219C20 16.1616 19.7081 15.8697 19.3478 15.8697H18.6956V14.5654H19.3478C19.7081 14.5654 20 14.2734 20 13.9132C20 13.5529 19.7081 13.261 19.3478 13.261H18.6956V11.9566H19.3478C19.7081 11.9566 20 11.6647 20 11.3045C20 10.9442 19.7081 10.6523 19.3478 10.6523H18.6956V9.34793H19.3478C19.7081 9.34793 20 9.05602 20 8.69574C20 8.33547 19.7081 8.04355 19.3478 8.04355H18.6956V6.73922H19.3478V6.73926ZM16.087 13.9132C16.087 14.2734 15.795 14.5654 15.4348 14.5654H4.56523C4.20496 14.5654 3.91305 14.2734 3.91305 13.9132V6.08707C3.91305 5.7268 4.20496 5.43488 4.56523 5.43488H15.4348C15.795 5.43488 16.087 5.7268 16.087 6.08707V13.9132Z" fill="black"/>
</svg>
