<svg width="22" height="22" viewBox="0 0 22 22" fill="none" xmlns="http://www.w3.org/2000/svg">
<g clip-path="url(#clip0_430_1063)">
<path d="M10.8511 2.32848C10.8511 1.35718 10.0608 0.566895 9.08948 0.566895H1.76155C0.790238 0.566895 0 1.35718 0 2.32848C0 2.36196 0.00193359 2.39539 0.00580078 2.42869L1.11573 12.0191C1.11573 12.0194 1.11577 12.0196 1.11577 12.0198L1.61666 16.3475C1.63612 16.9398 1.94958 17.4591 2.4154 17.7639V20.5618C2.4154 21.043 2.80556 21.4331 3.28677 21.4331H7.56448C8.04568 21.4331 8.43584 21.043 8.43584 20.5618V17.764C8.90171 17.4592 9.21525 16.94 9.23463 16.3475L10.8454 2.42869C10.8492 2.39543 10.8511 2.36196 10.8511 2.32848ZM6.69303 19.6904H4.15804V18.0505H6.69303V19.6904ZM7.49856 16.1887C7.49474 16.2219 7.49276 16.2554 7.49276 16.2889C7.49276 16.294 7.49061 16.2986 7.4873 16.3019H3.36377C3.36046 16.2986 3.35831 16.294 3.35831 16.2889C3.35831 16.2554 3.35638 16.222 3.35251 16.1887L2.90241 12.2994L8.48676 7.64922L7.49856 16.1887ZM8.77723 5.13954L2.66307 10.231L1.74711 2.31637C1.75059 2.31224 1.75575 2.30962 1.7615 2.30962H9.08939C9.0952 2.30962 9.10035 2.31224 9.10388 2.31637L8.77723 5.13954Z" fill="black"/>
<path d="M19.4741 11.1185V7.94216C19.4741 7.46096 19.0839 7.0708 18.6027 7.0708H13.5665C13.0853 7.0708 12.6951 7.46091 12.6951 7.94216V11.1185C11.2577 11.3995 10.1694 12.6681 10.1694 14.1865V18.3064C10.1694 20.0304 11.572 21.433 13.296 21.433H18.8733C20.5973 21.433 21.9998 20.0304 21.9998 18.3064V14.1865C21.9998 12.6681 20.9115 11.3995 19.4741 11.1185ZM14.4379 8.81353H17.7313V11.06H14.4379V8.81353ZM18.8733 19.6903H13.296C12.5329 19.6903 11.9122 19.0695 11.9122 18.3065V14.1865C11.9122 13.4235 12.533 12.8027 13.296 12.8027H13.5665H18.6027H18.8732C19.6363 12.8027 20.257 13.4235 20.257 14.1865V18.3064H20.2571C20.2571 19.0695 19.6363 19.6903 18.8733 19.6903Z" fill="black"/>
<path d="M16.0849 13.5947C14.6227 13.5947 13.4331 14.7844 13.4331 16.2466C13.4331 17.7089 14.6227 18.8984 16.0849 18.8984C17.5471 18.8984 18.7368 17.7088 18.7368 16.2466C18.7368 14.7844 17.5471 13.5947 16.0849 13.5947ZM16.0849 17.1558C15.5836 17.1558 15.1758 16.7479 15.1758 16.2466C15.1758 15.7453 15.5836 15.3375 16.0849 15.3375C16.5862 15.3375 16.9941 15.7453 16.9941 16.2466C16.9941 16.7479 16.5862 17.1558 16.0849 17.1558Z" fill="black"/>
</g>
<defs>
<clipPath id="clip0_430_1063">
<rect width="22" height="22" fill="white"/>
</clipPath>
</defs>
</svg>
