<svg width="24" height="24" viewBox="0 0 24 24" fill="none" xmlns="http://www.w3.org/2000/svg">
<path d="M-0.000232697 8.45285C-0.000232697 5.43499 2.37763 2.8855 5.19233 2.8855C5.33561 2.8855 5.48082 2.89196 5.62441 2.90489C8.27848 3.14425 15.8168 4.74513 16.1366 4.81317C16.5136 4.8935 16.7832 5.22651 16.7832 5.61212V11.2935C16.7832 11.679 16.5136 12.0121 16.1366 12.0924C15.9231 12.1379 12.4927 12.8664 9.44583 13.417L12.8419 19.92C12.9742 20.173 12.9645 20.477 12.8165 20.7213C12.6684 20.9656 12.4035 21.1148 12.1179 21.1148H7.3706C7.06635 21.1148 6.78749 20.9459 6.64672 20.6761L2.7352 13.3333C1.12114 12.3764 -0.000232697 10.5251 -0.000232697 8.45285ZM5.47767 4.53188C5.38272 4.5234 5.28672 4.51895 5.19233 4.51895C3.26328 4.51895 1.6333 6.32041 1.6333 8.45285C1.6333 10.5853 3.26328 12.3868 5.1925 12.3868C5.2868 12.3868 5.3828 12.3823 5.47767 12.3738C6.75944 12.2581 9.32995 11.7903 11.5845 11.3503V5.55524C9.32995 5.1154 6.75961 4.6476 5.47767 4.53188ZM15.1497 6.27507C14.6883 6.17899 14.0104 6.03911 13.2183 5.87944V11.026C14.0104 10.8664 14.6883 10.7265 15.1497 10.6302V6.27507ZM7.86555 19.4811H10.7699L7.7554 13.7088C6.91031 13.8464 6.1655 13.9518 5.62425 14.0006C5.48082 14.0137 5.33552 14.0201 5.19241 14.0201C5.13165 14.0201 5.07136 14.0173 5.011 14.015L7.86555 19.4811Z" fill="black"/>
<path d="M18.3722 10.4491C19.3238 10.4491 19.7629 10.151 20.3188 9.77333C20.9472 9.34674 21.7293 8.81543 23.1832 8.81543C23.6343 8.81543 24 9.18125 24 9.63216C24 10.0834 23.6343 10.449 23.1833 10.449C22.2317 10.449 21.7925 10.7471 21.2367 11.1247C20.6082 11.5516 19.8262 12.0827 18.3723 12.0827C17.9213 12.0827 17.5556 11.7168 17.5556 11.2658C17.5555 10.8148 17.9212 10.4491 18.3722 10.4491Z" fill="black"/>
<path d="M18.3722 8.04345C19.3238 8.04345 19.7629 7.74535 20.3188 7.36781C20.9473 6.94106 21.7293 6.40991 23.1833 6.40991C23.6343 6.40991 24 6.77565 24 7.22672C24 7.67763 23.6343 8.04345 23.1833 8.04345C22.2317 8.04345 21.7925 8.34171 21.2367 8.71925C20.6082 9.14599 19.8262 9.67714 18.3723 9.67714C17.9213 9.67714 17.5556 9.31133 17.5556 8.86042C17.5555 8.40927 17.9212 8.04345 18.3722 8.04345Z" fill="black"/>
<path d="M18.3722 5.63809C19.3238 5.63809 19.7629 5.33999 20.3188 4.96229C20.9473 4.53563 21.7293 4.00439 23.1833 4.00439C23.6343 4.00439 24 4.37021 24 4.82112C24 5.27235 23.6343 5.63809 23.1833 5.63809C22.2317 5.63809 21.7925 5.93619 21.2367 6.31373C20.6082 6.74064 19.8262 7.27163 18.3723 7.27163C17.9213 7.27163 17.5556 6.90597 17.5556 6.4549C17.5555 6.00375 17.9212 5.63809 18.3722 5.63809Z" fill="black"/>
</svg>
