<svg width="36" height="36" viewBox="0 0 36 36" fill="none" xmlns="http://www.w3.org/2000/svg">
<g clip-path="url(#clip0_151_1476)">
<path d="M25.5 33C27.99 33 30 30.99 30 28.5C30 26.01 27.99 24 25.5 24C23.55 24 21.9 25.26 21.27 27H13.71L16.695 22.41C17.13 22.47 17.565 22.5 18 22.5C18.435 22.5 18.87 22.47 19.305 22.41L20.835 24.765C21.465 23.97 22.275 23.34 23.235 22.95L22.335 21.555C25.965 19.905 28.5 16.26 28.5 12H7.5C7.5 16.26 10.035 19.905 13.68 21.555L7.755 30.675C7.305 31.365 7.5 32.295 8.19 32.745C8.88 33.195 9.81 33 10.26 32.31L11.76 29.985H21.27C21.9 31.74 23.55 33 25.5 33ZM25.5 27C26.325 27 27 27.675 27 28.5C27 29.325 26.325 30 25.5 30C24.675 30 24 29.325 24 28.5C24 27.675 24.675 27 25.5 27Z" fill="#FC7324"/>
<path d="M14.1148 10.5H15.6148C15.8398 8.775 15.9598 8.04 14.2798 6.06C13.6498 5.31 13.2598 4.905 13.5898 3H12.1048C11.7898 4.665 12.1498 6.075 13.4398 7.44C13.7698 7.8 14.6248 8.445 14.1148 10.5Z" fill="#FC7324"/>
<path d="M17.835 10.5H19.335C19.56 8.775 19.68 8.04 18 6.06C17.37 5.31 16.98 4.89 17.31 3H15.825C15.51 4.665 15.87 6.075 17.16 7.44C17.505 7.8 18.36 8.445 17.835 10.5Z" fill="#FC7324"/>
<path d="M21.6148 10.5H23.1148C23.3398 8.775 23.4598 8.04 21.7798 6.06C21.1498 5.31 20.7598 4.905 21.0898 3H19.6048C19.2898 4.665 19.6498 6.075 20.9398 7.44C21.2698 7.8 22.1248 8.445 21.6148 10.5Z" fill="#FC7324"/>
</g>
<defs>
<clipPath id="clip0_151_1476">
<rect width="36" height="36" fill="white"/>
</clipPath>
</defs>
</svg>
