<svg width="22" height="22" viewBox="0 0 22 22" fill="none" xmlns="http://www.w3.org/2000/svg">
<path d="M20.9538 14.68L11.8567 8.98233V8.55437C11.8567 8.30152 11.9864 8.09776 12.265 7.91403C12.2994 7.89113 12.3399 7.86656 12.3849 7.83913C12.8269 7.56826 13.7467 7.00484 13.7467 5.73478C13.7467 4.4156 12.6595 3.40332 11.6079 3.18646C10.5007 2.95652 9.49665 3.22613 8.84278 3.94384C8.24663 4.59606 8.07926 5.13945 8.04408 6.0216C8.04121 6.08543 8.0396 6.2229 8.03793 6.3571C8.03627 6.54244 8.40207 6.69305 8.8538 6.69305H9.01744C9.46917 6.69305 9.83618 6.5433 9.83703 6.35796C9.83744 6.20493 9.83869 6.0511 9.8399 6.02201C9.86487 5.41358 10.0285 5.05553 10.6496 4.92994C11.0359 4.85222 11.4528 4.96024 11.6971 5.1996C11.808 5.30762 11.8665 5.49503 11.8501 5.68857C11.8395 5.81749 11.7842 6.05885 11.5408 6.22663L10.7613 6.75733C10.2642 7.07566 10.0526 7.45661 10.0526 8.03066V8.98359L1.04731 14.66C-0.287427 15.4832 -0.0112273 16.8871 0.105404 17.2979C0.212219 17.6723 0.697872 18.8936 2.46632 18.8936H19.6461C20.8957 18.8936 21.6862 18.081 21.9165 17.2749C22.1551 16.4321 21.8965 15.2357 20.9538 14.68ZM20.0295 16.6628C19.9865 16.8134 19.847 16.9758 19.6203 16.9758C19.6199 16.9758 19.6199 16.9758 19.6199 16.9758H2.44462C2.20648 16.975 2.07228 16.8187 2.02974 16.6853C1.97533 16.5139 2.0457 16.3388 2.20773 16.2238L11.0106 10.7139L19.8621 16.2471C20.081 16.3842 20.052 16.5834 20.0295 16.6628Z" fill="#010002"/>
</svg>
