<svg width="22" height="22" viewBox="0 0 22 22" fill="none" xmlns="http://www.w3.org/2000/svg">
<g clip-path="url(#clip0_191_198)">
<path d="M6.41659 7.33341C7.42911 7.33341 8.24992 6.5126 8.24992 5.50008C8.24992 4.48756 7.42911 3.66675 6.41659 3.66675C5.40406 3.66675 4.58325 4.48756 4.58325 5.50008C4.58325 6.5126 5.40406 7.33341 6.41659 7.33341Z" fill="#636363"/>
<path d="M10.2208 11C9.93659 10.7983 9.67992 10.5783 9.46909 10.34L8.18575 8.91917C8.01159 8.72667 7.79158 8.57083 7.55325 8.46083C7.28742 8.3325 6.98492 8.25 6.67325 8.25H6.64575C5.50909 8.25 4.58325 9.17583 4.58325 10.3125V11H1.83325V18.3333C1.83325 19.3417 2.65825 20.1667 3.66659 20.1667H18.3333C19.3416 20.1667 20.1666 19.3417 20.1666 18.3333V11H10.2208ZM6.41659 18.3333H4.58325V12.8333H6.41659V18.3333ZM10.0833 18.3333H8.24992V12.8333H10.0833V18.3333ZM13.7499 18.3333H11.9166V12.8333H13.7499V18.3333ZM17.4166 18.3333H15.5833V12.8333H17.4166V18.3333ZM15.9683 6.60917C16.4908 7.1775 16.7199 7.90167 16.5824 8.62583L16.4816 9.16667H18.2324L18.2874 8.7725C18.4799 7.52583 18.0399 6.28833 17.0958 5.37167L17.0316 5.3075C16.5091 4.73917 16.2799 4.015 16.4174 3.29083L16.4999 2.75H14.7674L14.7124 3.14417C14.5291 4.39083 14.9599 5.62833 15.9041 6.55417L15.9683 6.60917ZM12.3016 6.60917C12.8241 7.1775 13.0533 7.90167 12.9158 8.62583L12.8149 9.16667H14.5658L14.6208 8.7725C14.8133 7.52583 14.3733 6.28833 13.4291 5.37167L13.3649 5.3075C12.8424 4.73917 12.6133 4.015 12.7508 3.29083L12.8333 2.75H11.1008L11.0458 3.14417C10.8624 4.39083 11.2933 5.62833 12.2374 6.55417L12.3016 6.60917Z" fill="#636363"/>
</g>
<defs>
<clipPath id="clip0_191_198">
<rect width="22" height="22" fill="white"/>
</clipPath>
</defs>
</svg>
