<svg width="20" height="20" viewBox="0 0 20 20" fill="none" xmlns="http://www.w3.org/2000/svg">
<g clip-path="url(#clip0_432_1438)">
<path d="M12.2232 14.1096H7.77637V17.8543H12.2232V14.1096Z" fill="black"/>
<path d="M19.2339 9.91284H15.0708V19.6574H19.2339C19.6562 19.6574 19.9998 19.3138 19.9998 18.8915V10.6788C19.9998 10.2565 19.6562 9.91284 19.2339 9.91284Z" fill="black"/>
<path d="M0.765954 19.6575H5.07091V9.91284H0.765954C0.343616 9.91284 0 10.2565 0 10.6788V18.8915C0 19.3139 0.343616 19.6575 0.765954 19.6575Z" fill="black"/>
<path d="M5.92188 9.91284V19.6574H14.2198V9.91284H5.92188ZM12.3404 11.3227C12.5695 11.3227 12.7553 11.5084 12.7553 11.7376C12.7553 11.9667 12.5695 12.1524 12.3404 12.1524C12.1112 12.1524 11.9255 11.9667 11.9255 11.7376C11.9255 11.5084 12.1113 11.3227 12.3404 11.3227ZM10.7801 11.3227C11.0092 11.3227 11.195 11.5084 11.195 11.7376C11.195 11.9667 11.0092 12.1524 10.7801 12.1524C10.5509 12.1524 10.3651 11.9667 10.3651 11.7376C10.3651 11.5084 10.5509 11.3227 10.7801 11.3227ZM9.21986 11.3227C9.44897 11.3227 9.63471 11.5084 9.63471 11.7376C9.63471 11.9667 9.44897 12.1524 9.21986 12.1524C8.99063 12.1524 8.8048 11.9667 8.8048 11.7376C8.80484 11.5084 8.99067 11.3227 9.21986 11.3227ZM7.65944 11.3227C7.88859 11.3227 8.07433 11.5084 8.07433 11.7376C8.07433 11.9667 7.88859 12.1524 7.65944 12.1524C7.43029 12.1524 7.24455 11.9667 7.24455 11.7376C7.24455 11.5084 7.43029 11.3227 7.65944 11.3227ZM13.0744 18.2798C13.0744 18.5148 12.8838 18.7054 12.6488 18.7054H7.35098C7.11595 18.7054 6.92545 18.5148 6.92545 18.2798V13.6841C6.92545 13.4491 7.11595 13.2586 7.35098 13.2586H12.6488C12.8838 13.2586 13.0744 13.4491 13.0744 13.6841V18.2798Z" fill="black"/>
<path d="M11.4915 4.89055C11.2296 4.89055 11.0153 4.67626 11.0153 4.41434V0.81874C11.0153 0.556826 10.801 0.342529 10.539 0.342529H9.46156C9.19961 0.342529 8.98531 0.556826 8.98531 0.81874V4.41434C8.98531 4.67626 8.77101 4.89055 8.5091 4.89055H6.66668C6.40473 4.89055 6.19043 5.10485 6.19043 5.36676V6.28718C6.19043 6.5491 6.40473 6.7634 6.66668 6.7634H13.334C13.5959 6.7634 13.8102 6.5491 13.8102 6.28718V5.36676C13.8102 5.10485 13.5959 4.89055 13.334 4.89055H11.4915Z" fill="black"/>
</g>
<defs>
<clipPath id="clip0_432_1438">
<rect width="20" height="20" fill="white"/>
</clipPath>
</defs>
</svg>
