<svg width="261" height="181" viewBox="0 0 261 181" fill="none" xmlns="http://www.w3.org/2000/svg">
<g clip-path="url(#clip0_151_1049)">
<path fill-rule="evenodd" clip-rule="evenodd" d="M256.381 87.4103C256.381 136.591 216.057 176.46 166.315 176.46C138.283 176.46 113.242 163.799 96.7237 143.944H89.5225C106.845 166.364 134.62 180.894 165.931 180.894C218.435 180.894 261 140.033 261 89.6273C261 45.1413 227.846 8.08903 183.964 0C223.933 10.2303 256.381 45.9743 256.381 87.4103Z" fill="white"/>
<path d="M173.975 121.909V120.901H178.369V121.909H173.975Z" fill="white"/>
<path d="M185.756 117.08C186.953 117.08 187.948 117.501 188.741 118.344C189.546 119.175 189.949 120.195 189.949 121.402C189.949 122.62 189.546 123.645 188.741 124.477C187.936 125.308 186.941 125.724 185.756 125.724C184.571 125.724 183.576 125.302 182.771 124.46C181.966 123.617 181.563 122.598 181.563 121.402C181.563 120.195 181.966 119.175 182.771 118.344C183.587 117.501 184.582 117.08 185.756 117.08ZM185.756 124.716C186.674 124.716 187.423 124.397 188.004 123.759C188.585 123.121 188.877 122.336 188.877 121.402C188.877 120.457 188.58 119.665 187.988 119.027C187.405 118.39 186.663 118.071 185.756 118.071C184.851 118.071 184.107 118.395 183.526 119.044C182.943 119.693 182.654 120.479 182.654 121.402C182.654 122.336 182.943 123.121 183.526 123.759C184.119 124.397 184.861 124.716 185.756 124.716Z" fill="white"/>
<path d="M195.787 125.723V118.258H193.345V117.284H199.334V118.258H196.845V125.723H195.787Z" fill="white"/>
<path d="M226.732 120.435H228.188C229.126 120.435 229.893 120.652 230.485 121.085C231.078 121.517 231.374 122.189 231.374 123.1C231.374 124 231.073 124.672 230.467 125.116C229.864 125.56 229.11 125.782 228.204 125.782H225.676V117.548H226.732V120.435ZM228.104 121.409H226.732V124.808H228.104C229.558 124.808 230.284 124.239 230.284 123.1C230.284 122.497 230.076 122.064 229.662 121.802C229.25 121.54 228.73 121.409 228.104 121.409Z" fill="white"/>
<path d="M206.092 117.69C207.278 117.69 208.225 118.074 208.932 118.842C209.65 119.599 210.027 120.558 210.059 121.72H203.187V121.736C203.187 122.611 203.475 123.346 204.052 123.943C204.628 124.54 205.358 124.839 206.238 124.839C207.294 124.839 208.116 124.519 208.703 123.879C208.834 123.709 208.921 123.591 208.966 123.527H209.961C209.7 124.402 208.998 125.063 207.855 125.51C207.441 125.692 206.903 125.782 206.238 125.782C205.063 125.782 204.084 125.393 203.301 124.615C202.529 123.837 202.142 122.877 202.142 121.736C202.142 120.585 202.512 119.626 203.251 118.858C204.002 118.08 204.95 117.69 206.092 117.69ZM206.092 118.57C205.362 118.57 204.742 118.778 204.23 119.194C203.731 119.599 203.404 120.153 203.251 120.857H208.932C208.781 120.143 208.454 119.583 207.953 119.178C207.452 118.773 206.832 118.57 206.092 118.57Z" fill="white"/>
<path d="M127.843 125.684V117.587H134.984V125.684H133.928V118.544H128.899V125.684H127.843Z" fill="white"/>
<path d="M146.148 125.684V123.936C145.925 124.53 145.511 125.006 144.908 125.364C144.316 125.711 143.684 125.885 143.014 125.885C141.84 125.885 140.885 125.471 140.147 124.642C139.41 123.813 139.041 122.811 139.041 121.635C139.041 120.437 139.41 119.429 140.147 118.612C140.896 117.794 141.851 117.385 143.014 117.385C143.684 117.385 144.31 117.553 144.891 117.889C145.483 118.225 145.902 118.69 146.148 119.283V117.587H147.204V125.684H146.148ZM146.182 121.635C146.182 120.728 145.897 119.961 145.327 119.334C144.768 118.696 144.047 118.376 143.165 118.376C142.271 118.376 141.539 118.696 140.969 119.334C140.41 119.972 140.131 120.739 140.131 121.635C140.131 122.285 140.287 122.884 140.6 123.433C140.924 123.97 141.371 124.368 141.941 124.625C142.298 124.804 142.706 124.894 143.165 124.894C144.047 124.894 144.768 124.575 145.327 123.936C145.897 123.287 146.182 122.52 146.182 121.635Z" fill="white"/>
<path d="M152.91 123.987V129.446H151.871V117.587H152.91V119.317C153.156 118.723 153.586 118.253 154.201 117.906C154.816 117.559 155.458 117.385 156.129 117.385C157.336 117.385 158.308 117.794 159.045 118.612C159.783 119.429 160.152 120.437 160.152 121.635C160.152 122.845 159.772 123.858 159.012 124.676C158.263 125.482 157.302 125.885 156.129 125.885C155.201 125.885 154.441 125.627 153.849 125.112C153.402 124.776 153.089 124.401 152.91 123.987ZM152.894 121.635C152.894 122.553 153.184 123.326 153.765 123.953C154.346 124.569 155.084 124.877 155.978 124.877C156.894 124.877 157.637 124.564 158.207 123.936C158.788 123.309 159.079 122.542 159.079 121.635C159.079 120.706 158.788 119.933 158.207 119.317C157.626 118.69 156.883 118.376 155.978 118.376C155.073 118.376 154.33 118.696 153.748 119.334C153.179 119.961 152.894 120.728 152.894 121.635Z" fill="white"/>
<path d="M164.195 125.684V117.587H165.217V121.084L169.325 117.587H170.883L166.375 121.45L171.083 125.684H169.524L165.217 121.884V125.684H164.195Z" fill="white"/>
<path d="M213.843 125.729H214.92L217.606 119.837L220.29 125.729H221.386L217.615 117.452L213.843 125.729Z" fill="white"/>
<path fill-rule="evenodd" clip-rule="evenodd" d="M42.4068 84.6596C65.8274 84.6596 84.8136 65.7216 84.8136 42.3604C84.8136 18.9992 65.8274 0.0611572 42.4068 0.0611572C18.9862 0.0611572 0 18.9992 0 42.3604C0 65.7216 18.9862 84.6596 42.4068 84.6596ZM42.6311 82.4215C60.4754 82.4215 74.941 64.3852 74.941 42.1365C74.941 19.8878 60.4754 1.85159 42.6311 1.85159C24.7868 1.85159 10.3212 19.8878 10.3212 42.1365C10.3212 64.3852 24.7868 82.4215 42.6311 82.4215Z" fill="white"/>
<path fill-rule="evenodd" clip-rule="evenodd" d="M60.9431 88.7766V50.9113C60.9698 50.4829 60.8465 49.7549 60.138 50.2689C59.4296 50.7828 53.7781 55.1939 51.0409 57.3354C50.7188 57.5227 50.107 58.2348 50.2358 59.5839C50.3646 60.9329 55.2272 108.22 57.6424 131.695C57.7229 132.069 58.1254 132.819 59.0915 132.819C60.299 132.819 61.0236 131.695 61.0236 130.008C61.0236 128.659 61.292 105.142 61.4261 93.5515C63.6803 92.3738 70.1047 92.9572 77.7688 104.713C79.0208 106.634 80.2413 108.563 81.4423 110.461C89.4311 123.086 96.5611 134.355 106.429 132.819C116.331 131.278 117.458 123.504 115.929 118.284C114.194 112.364 106.67 111.057 106.67 111.459C106.67 111.574 106.902 111.762 107.272 112.062C108.194 112.808 109.973 114.25 111.179 117C113.856 123.102 112.064 130.493 106.026 131.374C98.8037 132.426 92.242 118.351 87.4025 107.969C86.2978 105.6 85.2829 103.423 84.3703 101.662C80.7015 94.583 71.4148 91.0787 66.9039 90.5472C72.6271 88.3237 80.4662 83.0737 88.2855 71.397C93.3763 63.7947 97.5956 58.1563 101.108 54.8188C103.523 52.9469 107.055 51.4962 109.086 54.043C111.903 57.5763 107.798 62.7153 106.429 64.0003C105.838 64.5557 114.479 61.5111 114.479 55.7294C114.479 48.6015 109.501 46.9537 104.831 48.5812C103.258 49.0632 101.697 50.0554 100.157 51.3528C96.0345 54.826 91.2307 61.2157 85.6075 69.6131C75.1551 85.2223 65.0305 88.371 60.9431 88.7766Z" fill="white"/>
<path d="M141.181 46.0084C140.643 46.0084 140.198 45.8338 139.848 45.4846C139.498 45.1355 139.323 44.6924 139.323 44.1553V25.5033C139.35 23.4084 139.848 21.5151 140.818 19.8231C141.814 18.1312 143.146 16.8019 144.816 15.8349C146.485 14.8681 148.37 14.3847 150.47 14.3847C152.597 14.3847 154.495 14.8815 156.165 15.8752C157.861 16.842 159.194 18.1715 160.163 19.8634C161.16 21.5286 161.657 23.4354 161.657 25.584C161.657 27.7055 161.186 29.6124 160.244 31.3043C159.328 32.9963 158.076 34.3258 156.488 35.2926C154.899 36.2594 153.109 36.7428 151.116 36.7428C149.42 36.7428 147.885 36.3937 146.512 35.6954C145.139 34.9971 143.981 34.0572 143.039 32.8755V44.1553C143.039 44.6924 142.864 45.1355 142.514 45.4846C142.191 45.8338 141.746 46.0084 141.181 46.0084ZM150.47 33.4394C151.897 33.4394 153.176 33.1037 154.307 32.4324C155.465 31.7341 156.367 30.7941 157.013 29.6124C157.686 28.4038 158.023 27.061 158.023 25.584C158.023 24.0799 157.686 22.7371 157.013 21.5554C156.367 20.3468 155.465 19.4068 154.307 18.7355C153.176 18.0372 151.897 17.6881 150.47 17.6881C149.043 17.6881 147.751 18.0372 146.593 18.7355C145.462 19.4337 144.574 20.3737 143.927 21.5554C143.281 22.7371 142.958 24.0799 142.958 25.584C142.958 27.061 143.281 28.4038 143.927 29.6124C144.574 30.7941 145.462 31.7341 146.593 32.4324C147.751 33.1037 149.043 33.4394 150.47 33.4394Z" fill="white"/>
<path fill-rule="evenodd" clip-rule="evenodd" d="M126.305 36.8924C124.131 36.994 121.596 36.6156 119.227 35.1975C117.457 34.138 116.291 32.7021 115.536 31.2353C114.619 29.6141 114.161 27.7772 114.161 25.7245C114.161 23.5279 114.645 21.5992 115.612 19.9384C116.58 18.2508 117.904 16.9249 119.583 15.9606C121.291 14.9962 123.255 14.5141 125.475 14.5141C127.639 14.5141 129.517 14.9828 131.111 15.9204C132.734 16.8311 133.972 18.1035 134.826 19.7375C135.708 21.3715 136.149 23.2332 136.149 25.3227C136.149 25.778 135.993 26.153 135.68 26.4477C135.367 26.7156 134.968 26.8495 134.484 26.8495H117.696C117.712 26.9146 117.729 26.9828 117.746 27.054C118.13 28.608 118.848 31.5147 122.368 32.9603C125.093 34.0799 128.398 32.9691 129.534 32.5177C129.767 32.413 130.002 32.3314 130.221 32.2877C131.075 32.1175 132.241 32.7419 132.241 33.8544C132.241 34.9669 132.017 35.1972 130.895 35.8687V35.869C130.102 36.2361 128.88 36.6142 127.424 36.7963C127.047 36.8506 126.675 36.8839 126.305 36.8924ZM117.614 24.077H132.812C132.706 23.0766 132.438 22.1525 132.008 21.3045C131.41 20.126 130.556 19.2017 129.446 18.5322C128.336 17.8625 127.012 17.5276 125.475 17.5276C123.853 17.5276 122.43 17.8758 121.206 18.5723C120.01 19.2687 119.085 20.2465 118.43 21.5054C118.031 22.2918 117.759 23.1489 117.614 24.077Z" fill="white"/>
<path d="M175.949 36.7428C173.796 36.7428 171.87 36.2728 170.173 35.3329C168.505 34.3661 167.185 33.0501 166.215 31.385C165.274 29.693 164.802 27.7593 164.802 25.584C164.802 23.3816 165.274 21.4479 166.215 19.7828C167.185 18.0909 168.505 16.7749 170.173 15.8349C171.87 14.8681 173.796 14.3847 175.949 14.3847C178.103 14.3847 180.014 14.8681 181.684 15.8349C183.381 16.7749 184.7 18.0909 185.642 19.7828C186.611 21.4479 187.11 23.3816 187.136 25.584C187.136 27.7593 186.651 29.693 185.682 31.385C184.712 33.0501 183.394 34.3661 181.724 35.3329C180.054 36.2728 178.13 36.7428 175.949 36.7428ZM175.949 33.4394C177.43 33.4394 178.736 33.1037 179.866 32.4324C180.998 31.7609 181.887 30.8344 182.532 29.6527C183.178 28.471 183.502 27.1147 183.502 25.584C183.502 24.0531 183.178 22.6968 182.532 21.5151C181.887 20.3065 180.998 19.3665 179.866 18.6952C178.736 18.0237 177.43 17.6881 175.949 17.6881C174.495 17.6881 173.189 18.0237 172.031 18.6952C170.901 19.3665 170.012 20.3065 169.366 21.5151C168.719 22.6968 168.397 24.0531 168.397 25.584C168.397 27.1147 168.719 28.471 169.366 29.6527C170.012 30.8344 170.901 31.7609 172.031 32.4324C173.189 33.1037 174.495 33.4394 175.949 33.4394Z" fill="white"/>
<path d="M102.336 41.8096C100.397 41.8096 98.674 41.4068 97.1662 40.601C95.6585 39.7684 94.4602 38.6405 93.5717 37.2171C92.7102 35.7669 92.2793 34.142 92.2793 32.3426C92.2793 31.8322 92.4274 31.4026 92.7235 31.0535C93.0198 30.7043 93.4101 30.5297 93.8947 30.5297C94.3795 30.5297 94.7698 30.7043 95.0661 31.0535C95.3622 31.4026 95.5103 31.8322 95.5103 32.3426C95.5103 33.5244 95.7931 34.5986 96.3584 35.5655C96.9507 36.5323 97.745 37.2976 98.7413 37.8616C99.7644 38.4256 100.909 38.7077 102.174 38.7077C104.167 38.7077 105.742 38.1571 106.899 37.0559C108.057 35.9548 108.636 34.4777 108.636 32.6247C108.636 31.3891 108.367 30.288 107.829 29.3212C107.29 28.3544 106.549 27.6024 105.607 27.0652C104.692 26.5281 103.655 26.2596 102.497 26.2596C102.013 26.2596 101.609 26.0984 101.286 25.7762C100.963 25.4271 100.801 25.0108 100.801 24.5274C100.801 24.0439 100.963 23.641 101.286 23.3188C101.609 22.9965 102.013 22.8354 102.497 22.8354C103.386 22.8354 104.207 22.6205 104.961 22.1907C105.715 21.7341 106.334 21.1299 106.819 20.378C107.303 19.6259 107.546 18.8068 107.546 17.9206C107.546 16.5508 107.075 15.4229 106.132 14.5366C105.19 13.6235 103.951 13.1669 102.417 13.1669C101.34 13.1669 100.357 13.3818 99.4683 13.8115C98.5797 14.2412 97.8798 14.8186 97.3681 15.5438C96.8834 16.242 96.6411 17.0477 96.6411 17.9609C96.6411 18.4712 96.4931 18.9008 96.1969 19.2499C95.9008 19.5723 95.5237 19.7333 95.0661 19.7333C94.5814 19.7333 94.191 19.5723 93.8947 19.2499C93.5986 18.9278 93.4505 18.5248 93.4505 18.0414C93.4505 16.5375 93.841 15.1812 94.6217 13.9726C95.4026 12.7641 96.4661 11.8107 97.8125 11.1124C99.1587 10.4141 100.693 10.065 102.417 10.065C103.978 10.065 105.392 10.4141 106.657 11.1124C107.923 11.7838 108.919 12.7238 109.646 13.9324C110.4 15.1141 110.777 16.4434 110.777 17.9206C110.777 18.8606 110.548 19.7603 110.09 20.6197C109.632 21.4523 109.04 22.1907 108.313 22.8354C107.586 23.4799 106.805 23.9901 105.971 24.3661C107.344 24.7959 108.488 25.4271 109.404 26.2596C110.319 27.0922 110.979 28.059 111.383 29.1601C111.813 30.2612 112.029 31.4294 112.029 32.6648C112.029 34.4106 111.598 35.9817 110.736 37.3782C109.875 38.748 108.703 39.8356 107.223 40.6413C105.742 41.4201 104.113 41.8096 102.336 41.8096Z" fill="white"/>
<path d="M192.204 93.4254C190.024 93.4254 188.086 92.942 186.389 91.9751C184.719 91.0083 183.4 89.6788 182.431 87.9869C181.462 86.2949 180.977 84.3748 180.977 82.2262C180.977 80.0508 181.462 78.1172 182.431 76.4252C183.4 74.7333 184.719 73.4038 186.389 72.4369C188.086 71.4701 190.024 70.9867 192.204 70.9867C194.359 70.9867 196.27 71.4701 197.94 72.4369C199.609 73.4038 200.928 74.7333 201.897 76.4252C202.867 78.1172 203.366 80.0508 203.391 82.2262C203.391 84.3748 202.907 86.2949 201.938 87.9869C200.968 89.6788 199.637 91.0083 197.94 91.9751C196.27 92.942 194.359 93.4254 192.204 93.4254ZM192.204 90.3638C193.713 90.3638 195.059 90.0147 196.244 89.3164C197.428 88.5912 198.357 87.6244 199.03 86.4159C199.703 85.1805 200.039 83.7839 200.039 82.2262C200.039 80.6685 199.703 79.2719 199.03 78.0365C198.357 76.8012 197.428 75.8343 196.244 75.136C195.059 74.4109 193.713 74.0483 192.204 74.0483C190.697 74.0483 189.337 74.4109 188.126 75.136C186.941 75.8343 185.999 76.8012 185.299 78.0365C184.626 79.2719 184.289 80.6685 184.289 82.2262C184.289 83.7839 184.626 85.1805 185.299 86.4159C185.999 87.6244 186.941 88.5912 188.126 89.3164C189.337 90.0147 190.697 90.3638 192.204 90.3638Z" fill="white"/>
<path d="M97.8349 102.42C97.3044 102.42 96.88 102.26 96.5617 101.94C96.2699 101.647 96.124 101.233 96.124 100.7V82.0243C96.1506 79.9448 96.6414 78.0785 97.5962 76.4255C98.5777 74.7459 99.8907 73.4261 101.535 72.4663C103.18 71.4799 105.037 70.9867 107.106 70.9867C109.228 70.9867 111.111 71.4799 112.756 72.4663C114.427 73.4261 115.74 74.7459 116.695 76.4255C117.676 78.1051 118.167 80.0115 118.167 82.1443C118.167 84.2504 117.703 86.1435 116.774 87.8231C115.872 89.5027 114.626 90.8357 113.034 91.8222C111.443 92.782 109.639 93.2619 107.623 93.2619C105.899 93.2619 104.334 92.902 102.928 92.1822C101.522 91.4357 100.381 90.4624 99.5061 89.2627V100.7C99.5061 101.233 99.3468 101.647 99.0285 101.94C98.7104 102.26 98.3123 102.42 97.8349 102.42ZM107.106 90.2225C108.591 90.2225 109.917 89.8759 111.085 89.1827C112.278 88.4629 113.207 87.4898 113.87 86.2634C114.559 85.0369 114.904 83.6639 114.904 82.1443C114.904 80.598 114.559 79.2248 113.87 78.0251C113.207 76.7988 112.278 75.8257 111.085 75.1059C109.917 74.386 108.591 74.0261 107.106 74.0261C105.673 74.0261 104.36 74.386 103.167 75.1059C102 75.8257 101.084 76.7988 100.421 78.0251C99.7581 79.2248 99.4265 80.598 99.4265 82.1443C99.4265 83.6639 99.7581 85.0369 100.421 86.2634C101.084 87.4898 102 88.4629 103.167 89.1827C104.334 89.8759 105.647 90.2225 107.106 90.2225Z" fill="white"/>
<path d="M126.903 99.4135C126.662 99.4135 126.373 99.3412 126.035 99.1968C124.975 98.7155 124.686 97.9573 125.168 96.9224L136.193 72.0481C136.675 71.0373 137.435 70.7484 138.471 71.1817C139.555 71.6389 139.856 72.3971 139.374 73.4561L128.313 98.2943C128.024 99.0404 127.554 99.4135 126.903 99.4135ZM131.169 89.9548C130.711 90.1473 130.277 90.1714 129.867 90.0269C129.482 89.8584 129.168 89.5456 128.927 89.0883L120.649 73.3839C120.408 72.9266 120.372 72.4933 120.541 72.0843C120.734 71.651 121.059 71.3381 121.517 71.1455C121.975 70.953 122.408 70.9409 122.818 71.1094C123.228 71.2538 123.541 71.5548 123.758 72.012L131.675 87.7164C131.916 88.1737 132 88.619 131.928 89.0522C131.879 89.4614 131.627 89.7622 131.169 89.9548Z" fill="white"/>
<path fill-rule="evenodd" clip-rule="evenodd" d="M217.768 93.3647C215.591 93.4681 213.051 93.091 210.679 91.6705C208.908 90.6105 207.74 89.1741 206.987 87.707C206.071 86.086 205.612 84.2493 205.612 82.1971C205.612 80.0006 206.096 78.0719 207.064 76.4111C208.032 74.7235 209.355 73.3975 211.035 72.4332C212.741 71.4688 214.706 70.9867 216.926 70.9867C219.09 70.9867 220.969 71.4555 222.562 72.3929C224.185 73.3037 225.423 74.5762 226.278 76.2102C227.16 77.8441 227.601 79.7058 227.601 81.7953C227.601 82.2506 227.443 82.6256 227.131 82.9203C226.817 83.1882 226.419 83.3222 225.935 83.3222H209.146C209.164 83.3874 209.18 83.4556 209.198 83.5268C209.581 85.0809 210.299 87.9877 213.819 89.4333C216.545 90.5527 219.848 89.4421 220.985 88.9907C221.219 88.8859 221.454 88.8044 221.673 88.7607C222.526 88.5903 223.692 89.2149 223.692 90.3274C223.692 91.4397 223.468 91.6702 222.346 92.3415V92.3418C221.55 92.7102 220.323 93.0896 218.86 93.2711C218.493 93.3236 218.129 93.3559 217.768 93.3647ZM209.066 80.5497H224.263C224.157 79.5493 223.888 78.6252 223.458 77.7772C222.861 76.5985 222.008 75.6744 220.897 75.0047C219.787 74.3351 218.464 74.0003 216.926 74.0003C215.305 74.0003 213.881 74.3484 212.656 75.045C211.461 75.7414 210.536 76.7191 209.882 77.9781C209.483 78.7644 209.21 79.6215 209.066 80.5497Z" fill="white"/>
<path fill-rule="evenodd" clip-rule="evenodd" d="M146.455 78.3683C145.809 79.5849 145.474 81.0941 145.474 82.6423C145.474 82.6661 145.474 82.6897 145.474 82.7132L145.506 92.085C145.428 92.4072 145.273 92.6869 145.042 92.9245C144.719 93.2839 144.274 93.4636 143.709 93.4636C143.17 93.4636 142.726 93.2839 142.376 92.9245C142.026 92.565 141.851 92.1089 141.851 91.556L141.851 82.4324C141.878 80.276 142.376 78.3269 143.346 76.5852C144.342 74.8434 145.675 73.4749 147.344 72.4797C149.013 71.4844 150.898 70.9867 152.998 70.9867C154.028 70.9867 155.003 71.1065 155.926 71.3461C156.712 71.4948 157.308 72.2026 157.308 73.0533C157.308 74.012 156.551 74.7893 155.618 74.7893C155.399 74.7893 155.191 74.7467 154.999 74.6695C154.383 74.5078 153.724 74.422 152.998 74.3873C151.571 74.3873 150.279 74.7466 149.121 75.4654C147.99 76.1843 147.102 77.1519 146.455 78.3683Z" fill="white"/>
<path fill-rule="evenodd" clip-rule="evenodd" d="M167.761 70.7697C167.175 71.978 166.871 73.477 166.871 75.0146C166.871 75.1125 166.872 75.2093 166.874 75.3049L166.956 81.4457C166.964 81.5326 166.969 81.6222 166.969 81.7145V90.7759C166.945 92.9176 166.492 94.8535 165.615 96.5834C164.712 98.3132 163.504 99.6726 161.99 100.661C160.478 101.65 158.77 102.144 156.867 102.144C155.934 102.144 155.049 102.025 154.214 101.787C153.501 101.639 152.961 100.936 152.961 100.091C152.961 99.139 153.647 98.367 154.493 98.367C154.691 98.367 154.88 98.4093 155.054 98.486C155.612 98.6466 156.21 98.7319 156.867 98.7663C158.16 98.7663 159.331 98.4094 160.381 97.6955C161.406 96.9815 162.211 96.0204 162.796 94.8124C163.382 93.6042 163.686 92.1051 163.686 90.5675C163.686 90.5439 163.686 90.5206 163.686 90.4971L163.657 81.189C163.66 81.172 163.663 81.1552 163.668 81.1385V74.8062C163.692 72.6644 164.064 70.7286 164.942 68.9988C165.845 67.2689 167.053 65.9096 168.566 64.921C170.078 63.9325 171.786 63.4384 173.69 63.4384C174.623 63.4384 175.507 63.5574 176.343 63.7954C177.056 63.9433 177.596 64.6461 177.596 65.4909C177.596 65.4975 177.596 65.504 177.596 65.5106C177.596 65.5158 177.596 65.5211 177.596 65.5262V91.8652C177.596 92.7522 176.874 93.4712 175.986 93.4712C175.097 93.4712 174.375 92.7522 174.375 91.8652V66.8737C174.153 66.847 173.926 66.828 173.69 66.8158C172.397 66.8158 171.226 67.1727 170.176 67.8866C169.151 68.6006 168.346 69.5617 167.761 70.7697Z" fill="white"/>
</g>
<defs>
<clipPath id="clip0_151_1049">
<rect width="261" height="181" fill="white"/>
</clipPath>
</defs>
</svg>
