<svg width="262" height="201" viewBox="0 0 262 201" fill="none" xmlns="http://www.w3.org/2000/svg">
<g clip-path="url(#clip0_151_1118)">
<path fill-rule="evenodd" clip-rule="evenodd" d="M257.079 96.9265C257.079 151.462 214.12 195.672 161.127 195.672C131.264 195.672 104.587 181.632 86.9891 159.615H79.3174C97.7714 184.477 127.361 200.589 160.718 200.589C216.653 200.589 261.999 155.279 261.999 99.3849C261.999 50.056 226.68 8.97015 179.931 0C222.51 11.3446 257.079 50.9798 257.079 96.9265Z" fill="white"/>
<path d="M165.223 138.504V137.489H169.732V138.504H165.223Z" fill="white"/>
<path d="M177.318 133.639C178.548 133.639 179.569 134.063 180.384 134.912C181.211 135.75 181.624 136.777 181.624 137.993C181.624 139.22 181.211 140.253 180.384 141.09C179.557 141.928 178.536 142.347 177.318 142.347C176.101 142.347 175.08 141.922 174.253 141.073C173.426 140.224 173.013 139.197 173.013 137.993C173.013 136.777 173.426 135.75 174.253 134.912C175.092 134.063 176.113 133.639 177.318 133.639ZM177.318 141.331C178.259 141.331 179.029 141.01 179.626 140.368C180.223 139.725 180.522 138.934 180.522 137.993C180.522 137.04 180.217 136.243 179.608 135.601C179.012 134.958 178.249 134.637 177.318 134.637C176.388 134.637 175.624 134.964 175.028 135.618C174.431 136.272 174.132 137.063 174.132 137.993C174.132 138.934 174.431 139.725 175.028 140.368C175.636 141.01 176.4 141.331 177.318 141.331Z" fill="white"/>
<path d="M187.618 142.346V134.825H185.109V133.844H191.259V134.825H188.704V142.346H187.618Z" fill="white"/>
<path d="M219.391 137.019H220.886C221.849 137.019 222.637 137.237 223.246 137.673C223.853 138.109 224.158 138.786 224.158 139.704C224.158 140.61 223.847 141.287 223.228 141.734C222.609 142.182 221.833 142.405 220.903 142.405H218.307V134.111H219.391V137.019ZM220.799 138H219.391V141.425H220.799C222.292 141.425 223.038 140.851 223.038 139.704C223.038 139.096 222.826 138.66 222.401 138.396C221.976 138.132 221.442 138 220.799 138Z" fill="white"/>
<path d="M198.223 134.212C199.451 134.212 200.431 134.601 201.164 135.378C201.908 136.145 202.297 137.116 202.331 138.293H195.213V138.309C195.213 139.195 195.511 139.94 196.109 140.544C196.706 141.149 197.461 141.451 198.374 141.451C199.468 141.451 200.319 141.127 200.929 140.48C201.062 140.307 201.154 140.188 201.198 140.123H202.229C201.96 141.009 201.232 141.678 200.049 142.131C199.621 142.315 199.062 142.407 198.374 142.407C197.158 142.407 196.143 142.013 195.33 141.224C194.53 140.436 194.13 139.465 194.13 138.309C194.13 137.143 194.514 136.172 195.28 135.394C196.059 134.606 197.039 134.212 198.223 134.212ZM198.223 135.103C197.467 135.103 196.825 135.313 196.294 135.734C195.776 136.145 195.438 136.706 195.28 137.419H201.164C201.007 136.695 200.668 136.128 200.15 135.718C199.631 135.308 198.989 135.103 198.223 135.103Z" fill="white"/>
<path d="M117.927 142.303V134.009H125.263V142.303H124.178V134.99H119.012V142.303H117.927Z" fill="white"/>
<path d="M136.734 142.303V140.514C136.504 141.122 136.079 141.609 135.459 141.977C134.851 142.332 134.202 142.51 133.513 142.51C132.308 142.51 131.326 142.086 130.568 141.237C129.811 140.388 129.432 139.361 129.432 138.156C129.432 136.929 129.811 135.896 130.568 135.059C131.338 134.221 132.319 133.802 133.513 133.802C134.202 133.802 134.845 133.974 135.442 134.319C136.051 134.663 136.481 135.139 136.734 135.747V134.009H137.819V142.303H136.734ZM136.768 138.156C136.768 137.227 136.475 136.441 135.89 135.799C135.316 135.145 134.575 134.818 133.668 134.818C132.75 134.818 131.998 135.145 131.412 135.799C130.838 136.453 130.551 137.238 130.551 138.156C130.551 138.822 130.712 139.435 131.033 139.998C131.366 140.548 131.826 140.956 132.411 141.219C132.778 141.403 133.198 141.495 133.668 141.495C134.575 141.495 135.316 141.168 135.89 140.514C136.475 139.848 136.768 139.063 136.768 138.156Z" fill="white"/>
<path d="M143.681 140.565V146.158H142.613V134.009H143.681V135.781C143.934 135.173 144.376 134.691 145.007 134.336C145.639 133.98 146.299 133.802 146.988 133.802C148.228 133.802 149.227 134.221 149.985 135.059C150.742 135.896 151.12 136.929 151.12 138.156C151.12 139.395 150.731 140.433 149.949 141.271C149.18 142.097 148.193 142.51 146.988 142.51C146.035 142.51 145.254 142.246 144.646 141.718C144.186 141.374 143.865 140.99 143.681 140.565ZM143.664 138.156C143.664 139.097 143.962 139.888 144.559 140.531C145.156 141.162 145.914 141.478 146.833 141.478C147.774 141.478 148.537 141.156 149.123 140.514C149.72 139.871 150.019 139.086 150.019 138.156C150.019 137.204 149.72 136.412 149.123 135.781C148.527 135.139 147.763 134.818 146.833 134.818C145.903 134.818 145.139 135.145 144.542 135.799C143.957 136.441 143.664 137.227 143.664 138.156Z" fill="white"/>
<path d="M155.275 142.303V134.009H156.326V137.592L160.545 134.009H162.148L157.515 137.967L162.352 142.303H160.75L156.326 138.411V142.303H155.275Z" fill="white"/>
<path fill-rule="evenodd" clip-rule="evenodd" d="M206.176 142.406H207.281L210.035 136.385L212.79 142.406H213.914L210.046 133.947L206.176 142.406Z" fill="white"/>
<path fill-rule="evenodd" clip-rule="evenodd" d="M100.676 112.494C98.687 112.588 96.3658 112.243 94.1978 110.943C92.5797 109.972 91.5132 108.657 90.8242 107.313C89.9869 105.83 89.5684 104.149 89.5684 102.271C89.5684 100.26 90.0105 98.495 90.8948 96.9747C91.7792 95.4299 92.9886 94.2162 94.5231 93.3335C96.0836 92.4507 97.8783 92.0094 99.9071 92.0094C101.884 92.0094 103.6 92.4385 105.057 93.2968C106.54 94.1305 107.671 95.2951 108.451 96.7908C109.258 98.2865 109.661 99.9907 109.661 101.903C109.661 102.32 109.517 102.663 109.231 102.933C108.945 103.178 108.581 103.301 108.139 103.301H92.7983C92.8133 103.361 92.8288 103.423 92.8448 103.488C93.1954 104.911 93.8512 107.572 97.0673 108.895C99.5579 109.92 102.578 108.903 103.616 108.49C103.829 108.394 104.044 108.319 104.244 108.279C105.024 108.123 106.089 108.695 106.089 109.713C106.089 110.732 105.884 110.943 104.859 111.557L104.859 111.557C104.132 111.895 103.011 112.242 101.675 112.408C101.338 112.456 101.006 112.486 100.676 112.494ZM92.7239 100.763H106.611C106.514 99.8474 106.269 99.0014 105.876 98.2252C105.33 97.1464 104.55 96.3004 103.535 95.6875C102.521 95.0745 101.312 94.7679 99.9071 94.7679C98.4246 94.7679 97.1241 95.0867 96.0057 95.7243C94.9133 96.3617 94.068 97.2567 93.4698 98.4091C93.1047 99.1289 92.856 99.9137 92.7239 100.763Z" fill="white"/>
<path fill-rule="evenodd" clip-rule="evenodd" d="M188.037 112.494C186.048 112.588 183.728 112.243 181.559 110.943C179.942 109.973 178.876 108.658 178.187 107.315C177.348 105.831 176.929 104.15 176.929 102.271C176.929 100.26 177.372 98.495 178.256 96.9747C179.14 95.4299 180.35 94.2162 181.884 93.3335C183.445 92.4507 185.24 92.0094 187.269 92.0094C189.245 92.0094 190.962 92.4385 192.419 93.2968C193.902 94.1305 195.033 95.2951 195.813 96.7908C196.619 98.2865 197.022 99.9907 197.022 101.903C197.022 102.32 196.879 102.663 196.592 102.933C196.307 103.178 195.942 103.301 195.501 103.301H180.16C180.175 103.361 180.191 103.423 180.207 103.488C180.557 104.911 181.213 107.572 184.43 108.895C186.919 109.92 189.939 108.903 190.977 108.49C191.19 108.394 191.405 108.319 191.605 108.279C192.385 108.123 193.451 108.695 193.451 109.713C193.451 110.732 193.245 110.943 192.22 111.557L192.221 111.557C191.493 111.895 190.372 112.242 189.036 112.408C188.699 112.456 188.367 112.486 188.037 112.494ZM180.085 100.763H193.972C193.875 99.8474 193.631 99.0014 193.238 98.2252C192.692 97.1464 191.911 96.3004 190.897 95.6875C189.882 95.0745 188.673 94.7679 187.269 94.7679C185.786 94.7679 184.486 95.0867 183.367 95.7243C182.274 96.3617 181.43 97.2567 180.831 98.4091C180.466 99.1289 180.217 99.9137 180.085 100.763Z" fill="white"/>
<path d="M163.673 112.681C161.68 112.681 159.908 112.238 158.359 111.353C156.833 110.468 155.628 109.251 154.743 107.703C153.857 106.154 153.414 104.396 153.414 102.429C153.414 100.438 153.857 98.668 154.743 97.1193C155.628 95.5703 156.833 94.3535 158.359 93.4685C159.908 92.5835 161.68 92.141 163.673 92.141C165.642 92.141 167.388 92.5835 168.914 93.4685C170.439 94.3535 171.644 95.5703 172.53 97.1193C173.416 98.668 173.87 100.438 173.895 102.429C173.895 104.396 173.453 106.154 172.567 107.703C171.681 109.251 170.463 110.468 168.914 111.353C167.388 112.238 165.642 112.681 163.673 112.681ZM163.673 109.878C165.05 109.878 166.28 109.559 167.363 108.919C168.446 108.256 169.295 107.371 169.91 106.264C170.525 105.133 170.832 103.855 170.832 102.429C170.832 101.003 170.525 99.7251 169.91 98.5942C169.295 97.4634 168.446 96.5784 167.363 95.9392C166.28 95.2754 165.05 94.9435 163.673 94.9435C162.295 94.9435 161.053 95.2754 159.945 95.9392C158.864 96.5784 158.001 97.4634 157.363 98.5942C156.748 99.7251 156.44 101.003 156.44 102.429C156.44 103.855 156.748 105.133 157.363 106.264C158.001 107.371 158.864 108.256 159.945 108.919C161.053 109.559 162.295 109.878 163.673 109.878Z" fill="white"/>
<path d="M148.965 112.497C148.497 112.497 148.117 112.361 147.821 112.091C147.526 111.796 147.379 111.403 147.379 110.911V93.9112C147.379 93.4195 147.526 93.0384 147.821 92.7681C148.117 92.473 148.497 92.3256 148.965 92.3256C149.408 92.3256 149.766 92.473 150.036 92.7681C150.307 93.0384 150.441 93.4195 150.441 93.9112V110.911C150.441 111.403 150.307 111.796 150.036 112.091C149.766 112.361 149.408 112.497 148.965 112.497ZM135.331 112.497C134.889 112.497 134.519 112.361 134.224 112.091C133.954 111.796 133.818 111.403 133.818 110.911V93.9112C133.818 93.4195 133.954 93.0384 134.224 92.7681C134.519 92.473 134.889 92.3256 135.331 92.3256C135.799 92.3256 136.168 92.473 136.439 92.7681C136.734 93.0384 136.881 93.4195 136.881 93.9112V110.911C136.881 111.403 136.734 111.796 136.439 112.091C136.168 112.361 135.799 112.497 135.331 112.497ZM136.402 103.646V100.844H148.375V103.646H136.402Z" fill="white"/>
<path d="M124.299 112.368C122.378 112.658 120.597 112.478 118.956 111.831C117.312 111.159 115.936 110.123 114.829 108.723C113.747 107.32 113.061 105.658 112.771 103.738C112.477 101.793 112.628 99.9927 113.224 98.3367C113.845 96.6769 114.807 95.3013 116.11 94.2099C117.434 93.0905 119.044 92.3878 120.942 92.1017C122.402 91.8818 123.796 91.97 125.125 92.3665C126.45 92.7386 127.673 93.4244 128.794 94.4239C129.137 94.7203 129.288 95.0581 129.246 95.4374C129.224 95.7888 129.051 96.1256 128.726 96.448C128.464 96.6864 128.146 96.8089 127.774 96.8152C127.423 96.7936 127.077 96.6469 126.737 96.3748C125.172 95.0693 123.38 94.5687 121.36 94.8731C120.022 95.0746 118.89 95.5684 117.964 96.3545C117.062 97.1369 116.415 98.1294 116.025 99.3318C115.63 100.51 115.543 101.828 115.763 103.287C115.976 104.697 116.459 105.917 117.211 106.947C117.985 107.949 118.944 108.7 120.089 109.199C121.255 109.669 122.519 109.802 123.881 109.597C124.806 109.457 125.614 109.211 126.308 108.858C127.025 108.501 127.637 108.024 128.144 107.425C128.444 107.107 128.763 106.909 129.1 106.834C129.437 106.758 129.768 106.808 130.093 106.982C130.453 107.226 130.685 107.527 130.788 107.885C130.892 108.242 130.82 108.588 130.572 108.924C129.042 110.82 126.951 111.968 124.299 112.368Z" fill="white"/>
<path fill-rule="evenodd" clip-rule="evenodd" d="M112.439 65.0839C110.452 65.1769 108.135 64.8306 105.971 63.5325C104.354 62.5626 103.287 61.2482 102.598 59.9055C101.76 58.4216 101.341 56.7401 101.341 54.8611C101.341 52.8504 101.784 51.085 102.668 49.5647C103.552 48.0199 104.762 46.8062 106.296 45.9235C107.857 45.0407 109.651 44.5994 111.68 44.5994C113.657 44.5994 115.374 45.0285 116.83 45.8867C118.312 46.7203 119.444 47.8851 120.224 49.3808C121.03 50.8765 121.434 52.5807 121.434 54.4933C121.434 54.9101 121.291 55.2533 121.004 55.5231C120.718 55.7683 120.354 55.8909 119.912 55.8909H104.571C104.586 55.9505 104.602 56.0129 104.618 56.0781C104.968 57.5006 105.624 60.1613 108.84 61.4846C111.331 62.5094 114.351 61.4927 115.389 61.0794C115.602 60.9836 115.817 60.9089 116.017 60.8689C116.797 60.7131 117.862 61.2847 117.862 62.303C117.862 63.3214 117.657 63.5322 116.632 64.1468H116.632L116.632 64.1471C115.908 64.4832 114.791 64.8293 113.461 64.996C113.116 65.0457 112.776 65.0761 112.439 65.0839ZM104.497 53.3531H118.384C118.287 52.4373 118.042 51.5914 117.649 50.8152C117.103 49.7364 116.323 48.8904 115.308 48.2775C114.294 47.6644 113.085 47.3579 111.68 47.3579C110.198 47.3579 108.897 47.6766 107.779 48.3142C106.686 48.9517 105.841 49.8467 105.243 50.9991C104.878 51.7189 104.629 52.5035 104.497 53.3531Z" fill="white"/>
<path d="M126.031 73.4284C125.539 73.4284 125.133 73.2686 124.813 72.949C124.493 72.6294 124.333 72.2238 124.333 71.7322V54.6586C124.358 52.741 124.813 51.0079 125.699 49.4591C126.609 47.9103 127.827 46.6935 129.352 45.8084C130.878 44.9233 132.6 44.4808 134.519 44.4808C136.463 44.4808 138.197 44.9357 139.722 45.8453C141.272 46.7303 142.49 47.9472 143.376 49.496C144.286 51.0202 144.742 52.7657 144.742 54.7324C144.742 56.6745 144.311 58.4199 143.45 59.9687C142.613 61.5175 141.469 62.7344 140.018 63.6195C138.566 64.5045 136.93 64.947 135.11 64.947C133.56 64.947 132.157 64.6274 130.902 63.9882C129.648 63.349 128.59 62.4886 127.729 61.4069V71.7322C127.729 72.2238 127.569 72.6294 127.249 72.949C126.954 73.2686 126.548 73.4284 126.031 73.4284ZM134.519 61.9231C135.823 61.9231 136.992 61.6158 138.025 61.0013C139.083 60.3621 139.907 59.5016 140.498 58.4199C141.113 57.3137 141.42 56.0845 141.42 54.7324C141.42 53.3557 141.113 52.1265 140.498 51.0448C139.907 49.9385 139.083 49.0781 138.025 48.4635C136.992 47.8243 135.823 47.5047 134.519 47.5047C133.215 47.5047 132.034 47.8243 130.976 48.4635C129.943 49.1026 129.131 49.9631 128.541 51.0448C127.95 52.1265 127.655 53.3557 127.655 54.7324C127.655 56.0845 127.95 57.3137 128.541 58.4199C129.131 59.5016 129.943 60.3621 130.976 61.0013C132.034 61.6158 133.215 61.9231 134.519 61.9231Z" fill="white"/>
<path d="M157.8 64.947C155.833 64.947 154.074 64.5168 152.523 63.6564C150.999 62.7713 149.792 61.5667 148.907 60.0425C148.046 58.4937 147.615 56.7237 147.615 54.7324C147.615 52.7165 148.046 50.9464 148.907 49.4222C149.792 47.8734 150.999 46.6688 152.523 45.8084C154.074 44.9233 155.833 44.4808 157.8 44.4808C159.769 44.4808 161.515 44.9233 163.041 45.8084C164.592 46.6688 165.797 47.8734 166.657 49.4222C167.543 50.9464 167.999 52.7165 168.023 54.7324C168.023 56.7237 167.58 58.4937 166.694 60.0425C165.808 61.5667 164.603 62.7713 163.078 63.6564C161.553 64.5168 159.794 64.947 157.8 64.947ZM157.8 61.9231C159.154 61.9231 160.347 61.6158 161.38 61.0013C162.414 60.3867 163.226 59.5386 163.816 58.4568C164.406 57.3751 164.702 56.1336 164.702 54.7324C164.702 53.3311 164.406 52.0896 163.816 51.0079C163.226 49.9016 162.414 49.0412 161.38 48.4266C160.347 47.812 159.154 47.5047 157.8 47.5047C156.472 47.5047 155.279 47.812 154.221 48.4266C153.188 49.0412 152.376 49.9016 151.786 51.0079C151.194 52.0896 150.9 53.3311 150.9 54.7324C150.9 56.1336 151.194 57.3751 151.786 58.4568C152.376 59.5386 153.188 60.3867 154.221 61.0013C155.279 61.6158 156.472 61.9231 157.8 61.9231Z" fill="white"/>
<path d="M90.5363 69.585C88.7649 69.585 87.1904 69.2163 85.8126 68.4787C84.4349 67.7166 83.34 66.6841 82.5281 65.3812C81.7409 64.0536 81.3472 62.5663 81.3472 60.9192C81.3472 60.4521 81.4825 60.0587 81.7531 59.7391C82.0238 59.4195 82.3804 59.2597 82.8233 59.2597C83.2661 59.2597 83.6229 59.4195 83.8936 59.7391C84.1642 60.0587 84.2995 60.4521 84.2995 60.9192C84.2995 62.0009 84.5579 62.9843 85.0744 63.8693C85.6157 64.7543 86.3415 65.4548 87.2519 65.9711C88.1867 66.4874 89.2323 66.7456 90.3887 66.7456C92.2093 66.7456 93.6486 66.2416 94.7064 65.2336C95.7644 64.2256 96.2933 62.8736 96.2933 61.1774C96.2933 60.0464 96.0473 59.0385 95.5553 58.1535C95.0632 57.2684 94.3866 56.5801 93.5256 56.0884C92.689 55.5968 91.7419 55.351 90.6839 55.351C90.241 55.351 89.872 55.2034 89.5768 54.9085C89.2816 54.5889 89.1339 54.2078 89.1339 53.7653C89.1339 53.3228 89.2816 52.9539 89.5768 52.659C89.872 52.364 90.241 52.2165 90.6839 52.2165C91.4959 52.2165 92.2462 52.0198 92.935 51.6264C93.624 51.2085 94.1899 50.6554 94.6327 49.9671C95.0756 49.2786 95.297 48.5289 95.297 47.7177C95.297 46.4638 94.8663 45.4313 94.0054 44.6201C93.1442 43.7842 92.0124 43.3662 90.6102 43.3662C89.626 43.3662 88.728 43.5629 87.9162 43.9564C87.1042 44.3496 86.4646 44.8781 85.9971 45.5419C85.5542 46.1811 85.3328 46.9186 85.3328 47.7546C85.3328 48.2216 85.1976 48.6149 84.9269 48.9345C84.6563 49.2295 84.3117 49.377 83.8936 49.377C83.4508 49.377 83.094 49.2295 82.8233 48.9345C82.5527 48.6396 82.4174 48.2707 82.4174 47.8282C82.4174 46.4516 82.7741 45.2101 83.4875 44.1038C84.2011 42.9975 85.1729 42.1247 86.403 41.4857C87.6332 40.8465 89.0355 40.5269 90.6102 40.5269C92.0371 40.5269 93.3287 40.8465 94.485 41.4857C95.6414 42.1002 96.5517 42.9606 97.2159 44.0669C97.9048 45.1486 98.2493 46.3654 98.2493 47.7177C98.2493 48.5781 98.0401 49.4017 97.6219 50.1883C97.2037 50.9505 96.6625 51.6264 95.9982 52.2165C95.3339 52.8065 94.6204 53.2735 93.8577 53.6177C95.1125 54.0111 96.1581 54.5889 96.9945 55.351C97.8311 56.1131 98.4338 56.9981 98.8028 58.006C99.1965 59.0139 99.3932 60.0833 99.3932 61.2141C99.3932 62.8121 98.9997 64.2503 98.2124 65.5286C97.4252 66.7825 96.3548 67.778 95.0017 68.5156C93.6486 69.2285 92.1601 69.585 90.5363 69.585Z" fill="white"/>
<path d="M69.2712 74.3912C59.1021 77.5052 48.9056 97.4044 45.0786 106.965C43.1649 110.379 40.1577 117.618 36.8774 126.427C33.6887 134.99 30.2672 145.275 25.6011 151.421C21.0905 157.362 16.1701 151.421 16.5801 134.827C16.9902 118.233 30.9319 118.028 30.7269 114.545C30.5219 111.062 3.25384 114.75 4.689 140.768C6.12416 166.785 23.3461 160.844 32.1621 152.24C40.978 143.636 54.3046 103.482 60.0453 91.8047C65.7858 80.1274 72.5517 78.0788 76.242 81.3566C79.9325 84.6345 73.7818 133.188 73.3717 140.768C72.9617 148.348 81.3677 160.23 92.0288 150.806C102.69 141.382 96.5394 131.139 95.7193 130.934C95.0632 130.77 95.0358 131.276 95.1042 131.549C96.1294 134.007 97.0724 139.948 92.644 144.046C87.1082 149.167 79.7274 145.889 79.5225 136.056C79.3174 126.222 83.6228 87.7074 83.8279 84.4296C84.0329 81.1517 81.9827 70.4987 69.2712 74.3912Z" fill="white"/>
<path fill-rule="evenodd" clip-rule="evenodd" d="M39.7479 108.809C61.1486 108.809 78.4973 91.4735 78.4973 70.0892C78.4973 48.705 61.1486 31.3696 39.7479 31.3696C18.3472 31.3696 0.998535 48.705 0.998535 70.0892C0.998535 91.4735 18.3472 108.809 39.7479 108.809ZM39.9529 106.76C56.2581 106.76 69.4763 90.2503 69.4763 69.8843C69.4763 49.5184 56.2581 33.0085 39.9529 33.0085C23.6476 33.0085 10.4296 49.5184 10.4296 69.8843C10.4296 90.2503 23.6476 106.76 39.9529 106.76Z" fill="white"/>
</g>
<defs>
<clipPath id="clip0_151_1118">
<rect width="261" height="200.672" fill="white" transform="translate(0.998535)"/>
</clipPath>
</defs>
</svg>
