<svg width="104" height="72" viewBox="0 0 104 72" fill="none" xmlns="http://www.w3.org/2000/svg">
<g clip-path="url(#clip0_151_1015)">
<path fill-rule="evenodd" clip-rule="evenodd" d="M102.159 34.771C102.159 54.3346 86.0917 70.1939 66.2714 70.1939C55.1014 70.1939 45.1234 65.1578 38.5413 57.2596H35.6719C42.5742 66.178 53.6417 71.9578 66.118 71.9578C87.0393 71.9578 104 55.7036 104 35.6528C104 17.9567 90.7893 3.21774 73.3037 0C89.2303 4.06952 102.159 18.2881 102.159 34.771Z" fill="#1F8A70"/>
<path d="M69.3232 48.4943V48.0934H71.0741V48.4943H69.3232Z" fill="black"/>
<path d="M74.0178 46.5732C74.4945 46.5732 74.891 46.7408 75.2073 47.076C75.5281 47.4068 75.6885 47.8122 75.6885 48.2924C75.6885 48.7772 75.5281 49.1849 75.2073 49.5156C74.8865 49.8463 74.49 50.0116 74.0178 50.0116C73.5456 50.0116 73.1491 49.844 72.8284 49.5088C72.5076 49.1736 72.3472 48.7681 72.3472 48.2924C72.3472 47.8122 72.5076 47.4068 72.8284 47.076C73.1536 46.7408 73.5501 46.5732 74.0178 46.5732ZM74.0178 49.6107C74.3835 49.6107 74.6819 49.4839 74.9135 49.2302C75.1451 48.9765 75.2612 48.6639 75.2612 48.2924C75.2612 47.9164 75.1432 47.6016 74.9071 47.3479C74.6748 47.0942 74.3791 46.9673 74.0178 46.9673C73.6573 46.9673 73.3609 47.0964 73.1292 47.3547C72.897 47.6129 72.7815 47.9255 72.7815 48.2924C72.7815 48.6639 72.897 48.9765 73.1292 49.2302C73.3654 49.4839 73.6611 49.6107 74.0178 49.6107Z" fill="black"/>
<path d="M78.0148 50.0113V47.0417H77.0415V46.6544H79.4282V47.0417H78.4363V50.0113H78.0148Z" fill="black"/>
<path d="M90.3452 47.908H90.9252C91.2992 47.908 91.6046 47.994 91.8407 48.1662C92.0768 48.3383 92.1949 48.6056 92.1949 48.9681C92.1949 49.3259 92.0749 49.5932 91.8337 49.7699C91.5931 49.9465 91.2928 50.0349 90.9316 50.0349H89.9243V46.7596H90.3452V47.908ZM90.8918 48.2953H90.3452V49.6475H90.8918C91.4712 49.6475 91.7605 49.4211 91.7605 48.9681C91.7605 48.7279 91.6778 48.5558 91.5129 48.4516C91.3486 48.3474 91.1414 48.2953 90.8918 48.2953Z" fill="black"/>
<path d="M82.1207 46.8161C82.5935 46.8161 82.9708 46.9688 83.2524 47.2742C83.5386 47.5753 83.6887 47.9569 83.7015 48.4191H80.9633V48.4255C80.9633 48.7733 81.0781 49.0659 81.3078 49.3034C81.5375 49.5409 81.8281 49.6596 82.1791 49.6596C82.5999 49.6596 82.9271 49.5324 83.1613 49.2779C83.2133 49.2101 83.2479 49.1634 83.2659 49.138H83.6624C83.5585 49.4857 83.2787 49.7487 82.8232 49.9267C82.6583 49.9989 82.444 50.0349 82.1791 50.0349C81.7107 50.0349 81.3206 49.8801 81.0088 49.5706C80.7009 49.261 80.5469 48.8793 80.5469 48.4255C80.5469 47.9675 80.6944 47.5859 80.9889 47.2805C81.2879 46.9709 81.6658 46.8161 82.1207 46.8161ZM82.1207 47.166C81.83 47.166 81.583 47.2487 81.379 47.4141C81.1801 47.5753 81.0499 47.7957 80.9889 48.0756H83.2524C83.1921 47.7915 83.0619 47.5689 82.8623 47.4078C82.6628 47.2466 82.4158 47.166 82.1207 47.166Z" fill="black"/>
<path d="M50.9414 49.9957V46.7748H53.7867V49.9957H53.3659V47.1557H51.3622V49.9957H50.9414Z" fill="black"/>
<path d="M58.2353 49.9957V49.3007C58.1463 49.5368 57.9815 49.7261 57.741 49.8687C57.5051 50.0068 57.2534 50.0758 56.9863 50.0758C56.5188 50.0758 56.1381 49.911 55.8442 49.5814C55.5502 49.2517 55.4033 48.853 55.4033 48.3853C55.4033 47.9086 55.5502 47.5077 55.8442 47.1825C56.1425 46.8572 56.5232 46.6947 56.9863 46.6947C57.2534 46.6947 57.5028 46.7615 57.7344 46.8951C57.9703 47.0288 58.1373 47.2137 58.2353 47.4497V46.7748H58.6561V49.9957H58.2353ZM58.2487 48.3853C58.2487 48.0245 58.1351 47.7193 57.908 47.4698C57.6854 47.2159 57.3982 47.0889 57.0464 47.0889C56.6902 47.0889 56.3985 47.2159 56.1714 47.4698C55.9488 47.7237 55.8375 48.0289 55.8375 48.3853C55.8375 48.6436 55.8998 48.8819 56.0245 49.1002C56.1536 49.3141 56.3318 49.4722 56.5588 49.5747C56.7013 49.646 56.8638 49.6816 57.0464 49.6816C57.3982 49.6816 57.6854 49.5547 57.908 49.3007C58.1351 49.0424 58.2487 48.7372 58.2487 48.3853Z" fill="black"/>
<path d="M60.9297 49.3208V51.4925H60.5156V46.7748H60.9297V47.4631C61.0277 47.227 61.1991 47.0399 61.4441 46.9018C61.6889 46.7637 61.9449 46.6947 62.2122 46.6947C62.693 46.6947 63.0804 46.8572 63.3743 47.1825C63.6682 47.5077 63.8151 47.9086 63.8151 48.3853C63.8151 48.8663 63.6637 49.2695 63.361 49.5947C63.0626 49.9155 62.6797 50.0758 62.2122 50.0758C61.8425 50.0758 61.5398 49.9734 61.3037 49.7685C61.1256 49.6348 61.001 49.4856 60.9297 49.3208ZM60.923 48.3853C60.923 48.7505 61.0388 49.0579 61.2704 49.3074C61.5019 49.5524 61.7958 49.6749 62.152 49.6749C62.5172 49.6749 62.8132 49.5502 63.0404 49.3007C63.2719 49.0512 63.3877 48.7461 63.3877 48.3853C63.3877 48.0155 63.2719 47.7082 63.0404 47.4631C62.8088 47.2137 62.5127 47.0889 62.152 47.0889C61.7913 47.0889 61.4953 47.2159 61.2637 47.4698C61.0366 47.7193 60.923 48.0245 60.923 48.3853Z" fill="black"/>
<path d="M65.4263 49.9957V46.7748H65.8337V48.166L67.4703 46.7748H68.0914L66.295 48.3117L68.1709 49.9957H67.5499L65.8337 48.4842V49.9957H65.4263Z" fill="black"/>
<path d="M85.2095 50.0137H85.6387L86.7088 47.6701L87.7784 50.0137H88.2153L86.7127 46.7214L85.2095 50.0137Z" fill="black"/>
<path fill-rule="evenodd" clip-rule="evenodd" d="M16.8977 33.6768C26.2301 33.6768 33.7954 26.1434 33.7954 16.8506C33.7954 7.5577 26.2301 0.0243301 16.8977 0.0243301C7.56538 0.0243301 0 7.5577 0 16.8506C0 26.1434 7.56538 33.6768 16.8977 33.6768ZM16.9871 32.7864C24.0975 32.7864 29.8615 25.6118 29.8615 16.7615C29.8615 7.91118 24.0975 0.736545 16.9871 0.736545C9.87673 0.736545 4.11267 7.91118 4.11267 16.7615C4.11267 25.6118 9.87673 32.7864 16.9871 32.7864Z" fill="#FC7324"/>
<path fill-rule="evenodd" clip-rule="evenodd" d="M24.2837 35.3144V20.252C24.2944 20.0816 24.2453 19.792 23.963 19.9964C23.6807 20.2009 21.4287 21.9556 20.338 22.8075C20.2097 22.8819 19.9659 23.1652 20.0172 23.7019C20.0686 24.2385 22.0061 43.0488 22.9685 52.3869C23.0006 52.5359 23.161 52.8341 23.5459 52.8341C24.0271 52.8341 24.3158 52.3869 24.3158 51.7161C24.3158 51.1794 24.4228 41.8243 24.4762 37.2138C25.3744 36.7454 27.9343 36.9775 30.9883 41.6539C31.4871 42.4179 31.9735 43.1852 32.452 43.9402C35.6353 48.9625 38.4764 53.445 42.4084 52.8341C46.3541 52.221 46.8032 49.1287 46.1937 47.0523C45.5024 44.6974 42.5046 44.1775 42.5046 44.3372C42.5046 44.383 42.5969 44.4577 42.7445 44.5771C43.1115 44.874 43.8205 45.4476 44.301 46.5413C45.3676 48.9689 44.6539 51.909 42.248 52.2591C39.37 52.6779 36.7553 47.0788 34.8269 42.9491C34.3868 42.0066 33.9824 41.1406 33.6187 40.4401C32.1568 37.6242 28.4564 36.2302 26.6589 36.0188C28.9394 35.1343 32.0631 33.0459 35.1788 28.401C37.2073 25.3769 38.8886 23.134 40.288 21.8064C41.2503 21.0618 42.6577 20.4847 43.467 21.4978C44.5897 22.9033 42.9537 24.9475 42.4084 25.4587C42.1727 25.6796 45.6163 24.4685 45.6163 22.1686C45.6163 19.3332 43.6325 18.6777 41.7715 19.3251C41.1448 19.5169 40.5228 19.9115 39.9092 20.4276C38.2665 21.8092 36.3524 24.351 34.1117 27.6914C29.9468 33.9006 25.9125 35.1531 24.2837 35.3144Z" fill="#FC7324"/>
<path d="M56.2564 18.3017C56.0418 18.3017 55.8647 18.2322 55.7253 18.0933C55.5859 17.9544 55.5161 17.7782 55.5161 17.5645V10.145C55.5268 9.31164 55.7253 8.55848 56.1116 7.88544C56.5085 7.21239 57.0395 6.68361 57.7047 6.29898C58.3699 5.91437 59.121 5.72208 59.9578 5.72208C60.8054 5.72208 61.5617 5.91972 62.2269 6.315C62.9028 6.69958 63.4339 7.22843 63.8201 7.90147C64.2173 8.56385 64.4155 9.32237 64.4155 10.177C64.4155 11.021 64.2275 11.7795 63.8523 12.4526C63.4875 13.1256 62.9886 13.6544 62.3557 14.039C61.7227 14.4236 61.0092 14.6159 60.2153 14.6159C59.5394 14.6159 58.9278 14.477 58.3807 14.1993C57.8335 13.9215 57.3722 13.5476 56.9967 13.0776V17.5645C56.9967 17.7782 56.9269 17.9544 56.7875 18.0933C56.6587 18.2322 56.4817 18.3017 56.2564 18.3017ZM59.9578 13.3019C60.5264 13.3019 61.036 13.1683 61.4866 12.9013C61.9479 12.6235 62.3074 12.2496 62.5649 11.7795C62.8331 11.2988 62.9672 10.7646 62.9672 10.177C62.9672 9.57875 62.8331 9.04459 62.5649 8.57452C62.3074 8.09377 61.9479 7.71984 61.4866 7.4528C61.036 7.17502 60.5264 7.03613 59.9578 7.03613C59.3891 7.03613 58.8742 7.17502 58.4128 7.4528C57.9623 7.73051 57.6082 8.10444 57.3507 8.57452C57.0932 9.04459 56.9645 9.57875 56.9645 10.177C56.9645 10.7646 57.0932 11.2988 57.3507 11.7795C57.6082 12.2496 57.9623 12.6235 58.4128 12.9013C58.8742 13.1683 59.3891 13.3019 59.9578 13.3019Z" fill="#1F8A70"/>
<path fill-rule="evenodd" clip-rule="evenodd" d="M50.329 14.6754C49.4627 14.7159 48.4524 14.5653 47.5086 14.0012C46.8034 13.5798 46.3384 13.0086 46.038 12.4251C45.6725 11.7802 45.4897 11.0495 45.4897 10.2329C45.4897 9.35917 45.6826 8.59196 46.0682 7.93131C46.4538 7.25999 46.9812 6.73254 47.6505 6.34895C48.331 5.96535 49.1136 5.77355 49.9983 5.77355C50.8603 5.77355 51.6088 5.96002 52.244 6.33297C52.8905 6.69524 53.3839 7.20141 53.7242 7.85139C54.0757 8.50137 54.2515 9.24194 54.2515 10.0731C54.2515 10.2542 54.1892 10.4034 54.0644 10.5206C53.9397 10.6272 53.7809 10.6805 53.588 10.6805H46.8983C46.9049 10.7063 46.9116 10.7335 46.9185 10.7618C47.0714 11.38 47.3574 12.5362 48.7599 13.1113C49.846 13.5566 51.1628 13.1148 51.6154 12.9352C51.7083 12.8936 51.8021 12.8611 51.8894 12.8437C52.2294 12.776 52.6941 13.0244 52.6941 13.4669C52.6941 13.9095 52.6047 14.0011 52.1577 14.2682V14.2683C51.8418 14.4144 51.3549 14.5648 50.7748 14.6372C50.6246 14.6588 50.4762 14.672 50.329 14.6754ZM46.8658 9.5776H52.9216C52.8794 9.17965 52.7726 8.81205 52.6013 8.47473C52.363 8.00593 52.0228 7.63826 51.5805 7.37192C51.1381 7.10551 50.6108 6.97231 49.9983 6.97231C49.3517 6.97231 48.7846 7.11082 48.297 7.38789C47.8206 7.6649 47.452 8.05384 47.1911 8.55465C47.0318 8.86744 46.9234 9.2084 46.8658 9.5776Z" fill="#1F8A70"/>
<path d="M70.1101 14.6159C69.2523 14.6159 68.485 14.4289 67.8088 14.0551C67.1441 13.6705 66.618 13.147 66.2318 12.4846C65.8564 11.8116 65.6685 11.0424 65.6685 10.177C65.6685 9.30097 65.8564 8.53178 66.2318 7.8694C66.618 7.19636 67.1441 6.67287 67.8088 6.29898C68.485 5.91437 69.2523 5.72208 70.1101 5.72208C70.9685 5.72208 71.7301 5.91437 72.3954 6.29898C73.0716 6.67287 73.5971 7.19636 73.9724 7.8694C74.3586 8.53178 74.5575 9.30097 74.5678 10.177C74.5678 11.0424 74.3747 11.8116 73.9885 12.4846C73.6022 13.147 73.0768 13.6705 72.4115 14.0551C71.7461 14.4289 70.9795 14.6159 70.1101 14.6159ZM70.1101 13.3019C70.7004 13.3019 71.2207 13.1683 71.6711 12.9013C72.1221 12.6342 72.4763 12.2656 72.7335 11.7955C72.9908 11.3255 73.1198 10.7859 73.1198 10.177C73.1198 9.56808 72.9908 9.02856 72.7335 8.55848C72.4763 8.07774 72.1221 7.70381 71.6711 7.43676C71.2207 7.16965 70.7004 7.03613 70.1101 7.03613C69.5308 7.03613 69.0104 7.16965 68.5491 7.43676C68.0988 7.70381 67.7446 8.07774 67.4873 8.55848C67.2294 9.02856 67.1011 9.56808 67.1011 10.177C67.1011 10.7859 67.2294 11.3255 67.4873 11.7955C67.7446 12.2656 68.0988 12.6342 68.5491 12.9013C69.0104 13.1683 69.5308 13.3019 70.1101 13.3019Z" fill="#1F8A70"/>
<path d="M40.7777 16.6314C40.0052 16.6314 39.3186 16.4712 38.7178 16.1507C38.117 15.8195 37.6395 15.3708 37.2855 14.8046C36.9422 14.2277 36.7705 13.5814 36.7705 12.8656C36.7705 12.6625 36.8295 12.4916 36.9475 12.3528C37.0656 12.2139 37.2211 12.1444 37.4142 12.1444C37.6074 12.1444 37.7629 12.2139 37.881 12.3528C37.9989 12.4916 38.058 12.6625 38.058 12.8656C38.058 13.3356 38.1706 13.763 38.3959 14.1476C38.6319 14.5322 38.9484 14.8366 39.3454 15.061C39.7531 15.2853 40.2091 15.3975 40.7133 15.3975C41.5072 15.3975 42.1349 15.1785 42.5962 14.7404C43.0575 14.3024 43.2882 13.7149 43.2882 12.9778C43.2882 12.4863 43.1809 12.0483 42.9664 11.6637C42.7518 11.2791 42.4567 10.98 42.0812 10.7663C41.7164 10.5526 41.3034 10.4458 40.842 10.4458C40.6489 10.4458 40.488 10.3817 40.3592 10.2535C40.2305 10.1146 40.1661 9.94903 40.1661 9.75673C40.1661 9.56443 40.2305 9.40414 40.3592 9.27599C40.488 9.14777 40.6489 9.08369 40.842 9.08369C41.1961 9.08369 41.5233 8.99821 41.8237 8.82725C42.1242 8.64562 42.3709 8.40528 42.564 8.10616C42.7571 7.80698 42.8537 7.48116 42.8537 7.12864C42.8537 6.58375 42.6659 6.13508 42.2904 5.78252C41.9149 5.41929 41.4214 5.23768 40.8099 5.23768C40.3807 5.23768 39.9891 5.32314 39.6351 5.49408C39.281 5.66501 39.0021 5.8947 38.7982 6.18315C38.6051 6.4609 38.5085 6.78141 38.5085 7.14467C38.5085 7.34764 38.4496 7.51854 38.3315 7.65742C38.2135 7.78564 38.0633 7.84972 37.881 7.84972C37.6878 7.84972 37.5323 7.78564 37.4142 7.65742C37.2962 7.52927 37.2372 7.36898 37.2372 7.17668C37.2372 6.57845 37.3928 6.03893 37.7039 5.55817C38.015 5.07743 38.4388 4.69817 38.9753 4.4204C39.5117 4.14264 40.1232 4.00375 40.8099 4.00375C41.4321 4.00375 41.9954 4.14264 42.4996 4.4204C43.0039 4.68749 43.4008 5.0614 43.6905 5.54215C43.9909 6.01221 44.1412 6.54101 44.1412 7.12864C44.1412 7.50256 44.0499 7.86046 43.8675 8.20231C43.6851 8.5335 43.4492 8.82725 43.1595 9.08369C42.8698 9.34006 42.5586 9.54303 42.226 9.69259C42.7732 9.86355 43.2292 10.1146 43.594 10.4458C43.9588 10.777 44.2216 11.1616 44.3825 11.5996C44.5542 12.0376 44.64 12.5023 44.64 12.9937C44.64 13.6882 44.4684 14.3132 44.1251 14.8687C43.7817 15.4136 43.315 15.8462 42.7249 16.1667C42.1349 16.4765 41.4858 16.6314 40.7777 16.6314Z" fill="#1F8A70"/>
<path d="M76.5875 37.1637C75.7188 37.1637 74.9463 36.9714 74.2701 36.5868C73.6048 36.2022 73.0793 35.6733 72.6931 35.0003C72.3069 34.3273 72.1138 33.5634 72.1138 32.7088C72.1138 31.8434 72.3069 31.0742 72.6931 30.4012C73.0793 29.7281 73.6048 29.1993 74.2701 28.8147C74.9463 28.4301 75.7188 28.2378 76.5875 28.2378C77.4459 28.2378 78.2075 28.4301 78.8728 28.8147C79.5381 29.1993 80.0636 29.7281 80.4498 30.4012C80.836 31.0742 81.0349 31.8434 81.0452 32.7088C81.0452 33.5634 80.8521 34.3273 80.4659 35.0003C80.0796 35.6733 79.549 36.2022 78.8728 36.5868C78.2075 36.9714 77.4459 37.1637 76.5875 37.1637ZM76.5875 35.9458C77.1887 35.9458 77.725 35.8069 78.1972 35.5292C78.6688 35.2407 79.039 34.8561 79.3072 34.3754C79.5753 33.8839 79.7094 33.3284 79.7094 32.7088C79.7094 32.0891 79.5753 31.5336 79.3072 31.0422C79.039 30.5507 78.6688 30.1661 78.1972 29.8884C77.725 29.5999 77.1887 29.4557 76.5875 29.4557C75.987 29.4557 75.4449 29.5999 74.9624 29.8884C74.4902 30.1661 74.1149 30.5507 73.8358 31.0422C73.5676 31.5336 73.4335 32.0891 73.4335 32.7088C73.4335 33.3284 73.5676 33.8839 73.8358 34.3754C74.1149 34.8561 74.4902 35.2407 74.9624 35.5292C75.4449 35.8069 75.987 35.9458 76.5875 35.9458Z" fill="#1F8A70"/>
<path d="M38.984 40.7416C38.7726 40.7416 38.6035 40.678 38.4766 40.5507C38.3604 40.434 38.3022 40.2697 38.3022 40.0575V32.6285C38.3128 31.8013 38.5084 31.0588 38.8888 30.4013C39.2799 29.7332 39.8032 29.2082 40.4585 28.8264C41.1138 28.434 41.8536 28.2378 42.6781 28.2378C43.5237 28.2378 44.2741 28.434 44.9294 28.8264C45.5953 29.2082 46.1185 29.7332 46.499 30.4013C46.8901 31.0694 47.0856 31.8278 47.0856 32.6762C47.0856 33.514 46.9006 34.267 46.5307 34.9351C46.1713 35.6033 45.6746 36.1335 45.0404 36.526C44.4062 36.9078 43.6875 37.0986 42.8842 37.0986C42.1971 37.0986 41.5735 36.9555 41.0134 36.6691C40.4531 36.3722 39.9986 35.985 39.6499 35.5078V40.0575C39.6499 40.2697 39.5864 40.434 39.4596 40.5507C39.3328 40.678 39.1742 40.7416 38.984 40.7416ZM42.6781 35.8896C43.27 35.8896 43.7985 35.7517 44.2635 35.476C44.7391 35.1897 45.1091 34.8026 45.3733 34.3147C45.6481 33.8268 45.7856 33.2807 45.7856 32.6762C45.7856 32.0611 45.6481 31.5148 45.3733 31.0376C45.1091 30.5498 44.7391 30.1627 44.2635 29.8764C43.7985 29.59 43.27 29.4468 42.6781 29.4468C42.1073 29.4468 41.5841 29.59 41.1085 29.8764C40.6434 30.1627 40.2788 30.5498 40.0146 31.0376C39.7503 31.5148 39.6182 32.0611 39.6182 32.6762C39.6182 33.2807 39.7503 33.8268 40.0146 34.3147C40.2788 34.8026 40.6434 35.1897 41.1085 35.476C41.5735 35.7517 42.0967 35.8896 42.6781 35.8896Z" fill="#1F8A70"/>
<path d="M50.5669 39.5457C50.4709 39.5457 50.3557 39.5169 50.2212 39.4595C49.7987 39.268 49.6834 38.9664 49.8755 38.5548L54.2688 28.66C54.4609 28.2579 54.7634 28.143 55.1763 28.3154C55.6084 28.4972 55.7285 28.7988 55.5364 29.2201L51.1287 39.1005C51.0134 39.3973 50.8262 39.5457 50.5669 39.5457ZM52.2666 35.7831C52.0842 35.8597 51.9113 35.8693 51.748 35.8118C51.5944 35.7448 51.4696 35.6203 51.3735 35.4384L48.075 29.1914C47.979 29.0095 47.9645 28.8371 48.0318 28.6744C48.1086 28.502 48.2382 28.3776 48.4207 28.301C48.6031 28.2244 48.776 28.2196 48.9392 28.2866C49.1025 28.344 49.2273 28.4638 49.3138 28.6456L52.4683 34.8927C52.5643 35.0746 52.5979 35.2518 52.5691 35.4241C52.5499 35.5868 52.4491 35.7065 52.2666 35.7831Z" fill="#1F8A70"/>
<path fill-rule="evenodd" clip-rule="evenodd" d="M86.7736 37.1395C85.9062 37.1807 84.8938 37.0307 83.9487 36.4656C83.243 36.0439 82.7779 35.4725 82.4776 34.8889C82.1125 34.2441 81.9297 33.5135 81.9297 32.6972C81.9297 31.8234 82.1228 31.0562 82.5084 30.3956C82.894 29.7242 83.4214 29.1968 84.0905 28.8132C84.7706 28.4296 85.5533 28.2378 86.4381 28.2378C87.3003 28.2378 88.0491 28.4243 88.6836 28.7972C89.3303 29.1595 89.8237 29.6657 90.1644 30.3156C90.5159 30.9656 90.6917 31.7062 90.6917 32.5373C90.6917 32.7185 90.6289 32.8676 90.5044 32.9849C90.3793 33.0914 90.2208 33.1447 90.0277 33.1447H83.338C83.345 33.1707 83.3514 33.1978 83.3585 33.2261C83.5112 33.8443 83.7973 35.0006 85.1998 35.5757C86.286 36.0209 87.6025 35.5792 88.0555 35.3996C88.1485 35.3579 88.2422 35.3255 88.3294 35.3081C88.6695 35.2403 89.134 35.4888 89.134 35.9313C89.134 36.3738 89.0448 36.4655 88.5976 36.7325V36.7326C88.2807 36.8792 87.7918 37.0301 87.2086 37.1023C87.0623 37.1232 86.9173 37.136 86.7736 37.1395ZM83.3059 32.0418H89.3617C89.3194 31.6439 89.2123 31.2763 89.0409 30.939C88.8029 30.4701 88.4629 30.1025 88.0202 29.8361C87.5782 29.5698 87.0508 29.4366 86.4381 29.4366C85.792 29.4366 85.2248 29.5751 84.7366 29.8521C84.2605 30.1292 83.8916 30.5181 83.6312 31.0189C83.472 31.3317 83.3636 31.6726 83.3059 32.0418Z" fill="#1F8A70"/>
<path fill-rule="evenodd" clip-rule="evenodd" d="M58.3581 31.1741C58.1006 31.6581 57.967 32.2584 57.967 32.8743C57.967 32.8837 57.9671 32.8931 57.9671 32.9025L57.98 36.6305C57.9487 36.7586 57.887 36.8699 57.7948 36.9644C57.666 37.1074 57.489 37.1789 57.2637 37.1789C57.0491 37.1789 56.8721 37.1074 56.7327 36.9644C56.5932 36.8214 56.5234 36.64 56.5234 36.42L56.5235 32.7908C56.5342 31.933 56.7327 31.1577 57.119 30.4648C57.5159 29.772 58.047 29.2276 58.7122 28.8317C59.3773 28.4358 60.1283 28.2378 60.9652 28.2378C61.3754 28.2378 61.7642 28.2855 62.1317 28.3808C62.4451 28.4399 62.6826 28.7215 62.6826 29.0599C62.6826 29.4412 62.381 29.7504 62.0089 29.7504C61.922 29.7504 61.8389 29.7335 61.7626 29.7028C61.517 29.6384 61.2543 29.6043 60.9652 29.5905C60.3966 29.5905 59.8816 29.7334 59.4202 30.0194C58.9697 30.3053 58.6156 30.6903 58.3581 31.1741Z" fill="#1F8A70"/>
<path fill-rule="evenodd" clip-rule="evenodd" d="M66.8476 28.1515C66.6141 28.6321 66.4928 29.2284 66.4928 29.8401C66.4928 29.879 66.4934 29.9175 66.4941 29.9555L66.5268 32.3983C66.53 32.4328 66.5319 32.4685 66.5319 32.5052V36.1098C66.5223 36.9617 66.342 37.7318 65.9924 38.4199C65.6324 39.108 65.1513 39.6487 64.5482 40.042C63.9456 40.4352 63.265 40.6318 62.5066 40.6318C62.1348 40.6318 61.7824 40.5844 61.4493 40.4897C61.1653 40.4309 60.9502 40.1513 60.9502 39.8153C60.9502 39.4365 61.2235 39.1294 61.5607 39.1294C61.6395 39.1294 61.7148 39.1462 61.7841 39.1768C62.0066 39.2406 62.2446 39.2746 62.5066 39.2882C63.0219 39.2882 63.4886 39.1463 63.9067 38.8623C64.3153 38.5783 64.6361 38.196 64.869 37.7154C65.1025 37.2348 65.2238 36.6385 65.2238 36.0268C65.2238 36.0174 65.2238 36.0082 65.2238 35.9989L65.2122 32.2962C65.2135 32.2894 65.2148 32.2827 65.2167 32.2761V29.7571C65.2263 28.9052 65.3745 28.1351 65.7242 27.447C66.0841 26.7589 66.5653 26.2182 67.1684 25.8249C67.7708 25.4317 68.4515 25.2351 69.2099 25.2351C69.582 25.2351 69.9342 25.2825 70.2672 25.3772C70.5514 25.436 70.7664 25.7156 70.7664 26.0516C70.7664 26.0542 70.7664 26.0568 70.7664 26.0595C70.7664 26.0615 70.7664 26.0636 70.7664 26.0657V36.543C70.7664 36.8959 70.4789 37.1819 70.1248 37.1819C69.7706 37.1819 69.4832 36.8959 69.4832 36.543V26.6017C69.3947 26.5911 69.3042 26.5835 69.2099 26.5787C68.6947 26.5787 68.2283 26.7206 67.81 27.0046C67.4013 27.2886 67.0805 27.6709 66.8476 28.1515Z" fill="#1F8A70"/>
</g>
<defs>
<clipPath id="clip0_151_1015">
<rect width="104" height="72" fill="white"/>
</clipPath>
</defs>
</svg>
