<svg width="20" height="20" viewBox="0 0 20 20" fill="none" xmlns="http://www.w3.org/2000/svg">
<path d="M16.2132 2.96035C14.5599 1.05137 12.3534 0 10 0C7.64668 0 5.4402 1.05137 3.78695 2.96035C2.15664 4.84289 1.25879 7.34293 1.25879 10C1.25879 12.6571 2.15664 15.1571 3.78695 17.0396C5.44023 18.9486 7.64672 20 10.0001 20C12.3534 20 14.5599 18.9486 16.2132 17.0396C17.8436 15.1571 18.7414 12.6571 18.7414 10C18.7414 7.34293 17.8434 4.84289 16.2132 2.96035ZM10 18.5774C5.96449 18.5774 2.68141 14.7296 2.68141 10C2.68141 5.27039 5.96453 1.42258 10 1.42258C14.0355 1.42258 17.3187 5.27039 17.3187 10C17.3187 14.7296 14.0356 18.5774 10 18.5774Z" fill="black"/>
<path d="M14.3862 4.81769C13.2248 3.39034 11.667 2.60425 9.99975 2.60425C8.33252 2.60425 6.77471 3.3903 5.61326 4.81765C4.48451 6.20495 3.86279 8.04538 3.86279 9.99995C3.86279 11.9545 4.48447 13.795 5.6133 15.1823C6.77475 16.6096 8.33252 17.3957 9.99978 17.3957C11.6671 17.3957 13.2248 16.6096 14.3863 15.1823C15.5151 13.795 16.1368 11.9546 16.1368 9.99995C16.1368 8.04534 15.515 6.20495 14.3862 4.81769ZM9.99975 15.9731C7.40025 15.9731 5.28541 13.2936 5.28541 9.99999C5.28541 6.7064 7.40029 4.02687 9.99975 4.02687C12.5992 4.02687 14.7141 6.70636 14.7141 9.99995C14.7141 13.2935 12.5992 15.9731 9.99975 15.9731Z" fill="black"/>
<path d="M12.0012 6.04529C11.7235 5.76744 11.273 5.76748 10.9952 6.04529L6.73516 10.3054C6.45742 10.5832 6.45742 11.0335 6.73516 11.3113C6.87406 11.4502 7.05609 11.5197 7.23812 11.5197C7.42012 11.5197 7.60227 11.4502 7.74109 11.3113L12.0012 7.05126C12.279 6.77341 12.279 6.32302 12.0012 6.04529Z" fill="black"/>
<path d="M13.2655 8.6939C12.9877 8.41616 12.5374 8.41616 12.2596 8.6939L8.00176 12.9517C7.72402 13.2296 7.72402 13.6799 8.00176 13.9577C8.14066 14.0966 8.3227 14.1661 8.50473 14.1661C8.68676 14.1661 8.86879 14.0966 9.0077 13.9577L13.2655 9.69987C13.5433 9.4221 13.5433 8.97171 13.2655 8.6939Z" fill="black"/>
</svg>
