<svg width="34" height="34" viewBox="0 0 34 34" fill="none" xmlns="http://www.w3.org/2000/svg">
<path d="M9.6771 8.15351C9.88741 8.49364 10.2512 8.68077 10.6239 8.68077C10.8233 8.68077 11.0254 8.62705 11.2075 8.51442C11.7298 8.19142 11.8915 7.50625 11.5684 6.98396C11.326 6.5919 11.4435 6.04166 11.6659 5.18209C11.9049 4.25851 12.2023 3.10902 11.5792 2.05781C11.2661 1.52962 10.5843 1.35517 10.0558 1.66821C9.52755 1.98131 9.35311 2.66337 9.66621 3.19163C9.81775 3.4473 9.66282 4.04601 9.51308 4.62508C9.24792 5.65012 8.91788 6.92579 9.6771 8.15351Z" fill="#FC7324"/>
<path d="M13.2366 8.1534C13.4469 8.49354 13.8109 8.68074 14.1834 8.68074C14.3829 8.68074 14.5849 8.62708 14.767 8.51439C15.2893 8.19152 15.451 7.50628 15.128 6.98399C14.8856 6.59186 15.003 6.04169 15.2254 5.18206C15.4644 4.25841 15.7617 3.10905 15.1388 2.05784C14.8257 1.52951 14.1435 1.3552 13.6154 1.66824C13.087 1.98134 12.9126 2.6634 13.2257 3.1916C13.3773 3.44726 13.2224 4.04604 13.0725 4.62504C12.8075 5.65002 12.4775 6.92568 13.2366 8.1534Z" fill="#FC7324"/>
<path d="M33.7953 11.0176C33.4404 10.5165 32.7464 10.3981 32.2453 10.753C32.0146 10.9165 26.716 14.7848 24.7837 25.8481H21.89L22.3579 22.7764C23.5841 22.7496 24.5736 21.7446 24.5736 20.5122V18.2268C24.5736 17.3559 24.0794 16.5987 23.3569 16.2196L24.0259 11.8277C24.0747 11.5072 23.9812 11.1815 23.7701 10.9356C23.5588 10.6899 23.2509 10.5483 22.9267 10.5483H1.64681C1.32268 10.5483 1.01475 10.6898 0.803449 10.9356C0.592211 11.1815 0.498777 11.5073 0.547586 11.8277L1.2167 16.2197C0.494195 16.5988 0 17.356 0 18.2268V20.5122C0 21.7446 0.989453 22.7496 2.21558 22.7764L3.03709 28.1685C3.08517 30.5582 5.04415 32.4874 7.4452 32.4874H7.83308C7.83361 32.4874 7.83414 32.4874 7.83461 32.4874C7.83521 32.4874 7.8358 32.4874 7.83634 32.4874H16.7373C16.7379 32.4874 16.7385 32.4874 16.739 32.4874C16.7396 32.4874 16.7401 32.4874 16.7406 32.4874H17.1284C17.7254 32.4874 18.295 32.3679 18.8148 32.152C19.1971 32.2147 19.5882 32.2476 19.9856 32.2476C23.0863 32.2476 25.8122 30.2723 26.778 27.3294C26.8027 27.2591 26.8206 27.1858 26.8308 27.1099C27.0975 25.3543 27.4542 23.7908 27.8594 22.407C28.7535 19.3538 29.8844 17.1763 30.8085 15.747C30.9891 15.4676 31.1669 15.2085 31.3398 14.9691C32.5539 13.287 33.5242 12.5725 33.5307 12.5676C34.0318 12.2127 34.1503 11.5187 33.7953 11.0176ZM19.4082 12.7722H21.6326L21.1467 15.9612H19.1417L19.4082 12.7722ZM13.3987 12.7722H17.1767L16.9102 15.9612H13.3987V12.7722ZM11.1748 12.7722V15.9612H7.66335L7.39686 12.7722H11.1748ZM5.16521 12.7722L5.43177 15.9612H3.4267L2.94087 12.7722H5.16521ZM5.25991 28.0784C5.25991 28.0223 5.25559 27.9664 5.24722 27.9109L4.46522 22.7777H6.00153L6.6134 30.0987C5.81984 29.7709 5.25991 28.9889 5.25991 28.0784ZM2.26565 20.5539C2.24254 20.5539 2.22375 20.5352 2.22375 20.5123V18.2269C2.22375 18.2039 2.24261 18.1852 2.26565 18.1852H22.3079C22.331 18.1852 22.3498 18.2039 22.3498 18.2269V20.5123C22.3498 20.5352 22.331 20.5539 22.3079 20.5539H2.26565ZM20.1083 22.7776L19.6406 25.8481H18.3155L18.5721 22.7776H20.1083ZM11.1748 30.2636H8.85873L8.23311 22.7776H11.1748V30.2636ZM13.3987 22.7776H16.3406L16.084 25.8481H14.2423C13.916 25.8481 13.609 25.9926 13.3987 26.2383V22.7776H13.3987ZM13.3987 30.2636V27.8778C13.7839 28.7941 14.3465 29.6005 15.038 30.2636H13.3987ZM19.9856 30.0239C18.4057 30.0239 16.967 29.2797 16.0556 28.0719H23.9155C23.0043 29.2797 21.5656 30.0239 19.9856 30.0239Z" fill="#FC7324"/>
</svg>
