<svg width="20" height="20" viewBox="0 0 20 20" fill="none" xmlns="http://www.w3.org/2000/svg">
<path d="M4.59461 1.35132C2.06113 1.35132 0 3.41245 0 5.94589V14.054C0 16.5875 2.06113 18.6486 4.59461 18.6486C7.12809 18.6486 9.18922 16.5875 9.18922 14.054V5.94589C9.18918 3.41245 7.12805 1.35132 4.59461 1.35132ZM7.56758 14.054C7.56758 15.6933 6.23391 17.027 4.59461 17.027C2.95531 17.027 1.62164 15.6933 1.62164 14.054V10.8108C1.62164 9.17147 2.95531 7.8378 4.59461 7.8378C6.23391 7.8378 7.56758 9.17147 7.56758 10.8108V14.054ZM7.56758 7.31179C6.76559 6.62929 5.7277 6.21616 4.59461 6.21616C3.46152 6.21616 2.42363 6.62929 1.62164 7.31179V5.94589C1.62164 4.30659 2.95531 2.97292 4.59461 2.97292C6.23391 2.97292 7.56758 4.30659 7.56758 5.94589V7.31179Z" fill="black"/>
<path d="M15.4052 1.35132C12.8717 1.35132 10.8105 3.41245 10.8105 5.94593V14.0541C10.8105 16.5875 12.8717 18.6487 15.4052 18.6487C17.9386 18.6487 19.9998 16.5875 19.9998 14.054V5.94589C19.9998 3.41245 17.9386 1.35132 15.4052 1.35132ZM18.3782 14.054C18.3782 15.6933 17.0445 17.027 15.4052 17.027C13.7659 17.027 12.4322 15.6933 12.4322 14.054V10.8108C12.4322 9.17147 13.7659 7.8378 15.4052 7.8378C17.0445 7.8378 18.3782 9.17147 18.3782 10.8108V14.054ZM18.3782 7.31179C17.5762 6.62929 16.5383 6.21616 15.4052 6.21616C14.2721 6.21616 13.2342 6.62929 12.4322 7.31179V5.94589C12.4322 4.30659 13.7659 2.97292 15.4052 2.97292C17.0445 2.97292 18.3782 4.30659 18.3782 5.94589V7.31179Z" fill="black"/>
</svg>
