<svg width="36" height="36" viewBox="0 0 36 36" fill="none" xmlns="http://www.w3.org/2000/svg">
<g clip-path="url(#clip0_151_1500)">
<path d="M23.25 16.5C24.4926 16.5 25.5 15.4926 25.5 14.25C25.5 13.0074 24.4926 12 23.25 12C22.0074 12 21 13.0074 21 14.25C21 15.4926 22.0074 16.5 23.25 16.5Z" fill="#FC7324"/>
<path d="M12.75 16.5C13.9926 16.5 15 15.4926 15 14.25C15 13.0074 13.9926 12 12.75 12C11.5074 12 10.5 13.0074 10.5 14.25C10.5 15.4926 11.5074 16.5 12.75 16.5Z" fill="#FC7324"/>
<path d="M17.985 3C9.705 3 3 9.72 3 18C3 26.28 9.705 33 17.985 33C26.28 33 33 26.28 33 18C33 9.72 26.28 3 17.985 3ZM18 30C11.37 30 6 24.63 6 18C6 11.37 11.37 6 18 6C24.63 6 30 11.37 30 18C30 24.63 24.63 30 18 30ZM10.5 21C11.67 24.51 14.58 27 18 27C21.42 27 24.33 24.51 25.5 21H10.5Z" fill="#FC7324"/>
</g>
<defs>
<clipPath id="clip0_151_1500">
<rect width="36" height="36" fill="white"/>
</clipPath>
</defs>
</svg>
