<svg width="20" height="20" viewBox="0 0 20 20" fill="none" xmlns="http://www.w3.org/2000/svg">
<path d="M17.3306 0H3.24875C2.30375 0 1.25 0.7675 1.25 1.8675V19.375C1.25 19.7206 1.53 20 1.875 20H18.125C18.47 20 18.75 19.7206 18.75 19.375V1.8675C18.75 0.243125 17.8612 0 17.3306 0ZM17.5 18.75H2.5V1.8675C2.5 1.51562 2.95438 1.25 3.24875 1.25H17.3306C17.3731 1.25 17.395 1.25437 17.3962 1.255C17.3969 1.25562 17.5 1.36875 17.5 1.8675V18.75Z" fill="black"/>
<path d="M18.125 3.75H1.875C1.53 3.75 1.25 4.02938 1.25 4.375C1.25 4.72062 1.53 5 1.875 5H18.125C18.47 5 18.75 4.72062 18.75 4.375C18.75 4.02938 18.47 3.75 18.125 3.75Z" fill="black"/>
<path d="M18.125 16.25H1.875C1.53 16.25 1.25 16.5294 1.25 16.875C1.25 17.2206 1.53 17.5 1.875 17.5H18.125C18.47 17.5 18.75 17.2206 18.75 16.875C18.75 16.5294 18.47 16.25 18.125 16.25Z" fill="black"/>
<path d="M13.75 1.875H11.875C11.53 1.875 11.25 2.15438 11.25 2.5C11.25 2.84562 11.53 3.125 11.875 3.125H13.75C14.095 3.125 14.375 2.84562 14.375 2.5C14.375 2.15438 14.095 1.875 13.75 1.875Z" fill="black"/>
<path d="M10.7314 2.07434C10.5002 1.84371 10.0814 1.84371 9.8502 2.07434C9.73145 2.19309 9.66895 2.35559 9.66895 2.51871C9.66895 2.68121 9.73145 2.84371 9.8502 2.96246C9.96895 3.07496 10.1252 3.14371 10.2939 3.14371C10.4564 3.14371 10.6189 3.07496 10.7314 2.96246C10.8502 2.84371 10.9189 2.68121 10.9189 2.51871C10.9189 2.35559 10.8502 2.19309 10.7314 2.07434Z" fill="black"/>
<path d="M8.8627 2.07434C8.63145 1.84371 8.20645 1.84371 7.9752 2.07434C7.8627 2.19309 7.79395 2.35559 7.79395 2.51871C7.79395 2.68121 7.8627 2.84371 7.9752 2.96246C8.09395 3.07496 8.25645 3.14371 8.41895 3.14371C8.58145 3.14371 8.74395 3.07496 8.8627 2.96246C8.9752 2.84371 9.04395 2.68121 9.04395 2.51871C9.04395 2.35559 8.9752 2.19309 8.8627 2.07434Z" fill="black"/>
<path d="M16.25 5.625H3.75C3.405 5.625 3.125 5.90438 3.125 6.25V15C3.125 15.3456 3.405 15.625 3.75 15.625H16.25C16.595 15.625 16.875 15.3456 16.875 15V6.25C16.875 5.90438 16.595 5.625 16.25 5.625ZM15.625 14.375H4.375V6.875H15.625V14.375Z" fill="black"/>
</svg>
