<svg width="36" height="36" viewBox="0 0 36 36" fill="none" xmlns="http://www.w3.org/2000/svg">
<g clip-path="url(#clip0_234_1762)">
<path d="M18 13.5C20.475 13.5 22.5 15.525 22.5 18C22.5 20.475 20.475 22.5 18 22.5C15.525 22.5 13.5 20.475 13.5 18C13.5 15.525 15.525 13.5 18 13.5ZM18 10.5C13.86 10.5 10.5 13.86 10.5 18C10.5 22.14 13.86 25.5 18 25.5C22.14 25.5 25.5 22.14 25.5 18C25.5 13.86 22.14 10.5 18 10.5ZM3 19.5H6C6.825 19.5 7.5 18.825 7.5 18C7.5 17.175 6.825 16.5 6 16.5H3C2.175 16.5 1.5 17.175 1.5 18C1.5 18.825 2.175 19.5 3 19.5ZM30 19.5H33C33.825 19.5 34.5 18.825 34.5 18C34.5 17.175 33.825 16.5 33 16.5H30C29.175 16.5 28.5 17.175 28.5 18C28.5 18.825 29.175 19.5 30 19.5ZM16.5 3V6C16.5 6.825 17.175 7.5 18 7.5C18.825 7.5 19.5 6.825 19.5 6V3C19.5 2.175 18.825 1.5 18 1.5C17.175 1.5 16.5 2.175 16.5 3ZM16.5 30V33C16.5 33.825 17.175 34.5 18 34.5C18.825 34.5 19.5 33.825 19.5 33V30C19.5 29.175 18.825 28.5 18 28.5C17.175 28.5 16.5 29.175 16.5 30ZM8.985 6.87C8.4 6.285 7.44 6.285 6.87 6.87C6.285 7.455 6.285 8.415 6.87 8.985L8.46 10.575C9.045 11.16 10.005 11.16 10.575 10.575C11.145 9.99 11.16 9.03 10.575 8.46L8.985 6.87ZM27.54 25.425C26.955 24.84 25.995 24.84 25.425 25.425C24.84 26.01 24.84 26.97 25.425 27.54L27.015 29.13C27.6 29.715 28.56 29.715 29.13 29.13C29.715 28.545 29.715 27.585 29.13 27.015L27.54 25.425ZM29.13 8.985C29.715 8.4 29.715 7.44 29.13 6.87C28.545 6.285 27.585 6.285 27.015 6.87L25.425 8.46C24.84 9.045 24.84 10.005 25.425 10.575C26.01 11.145 26.97 11.16 27.54 10.575L29.13 8.985ZM10.575 27.54C11.16 26.955 11.16 25.995 10.575 25.425C9.99 24.84 9.03 24.84 8.46 25.425L6.87 27.015C6.285 27.6 6.285 28.56 6.87 29.13C7.455 29.7 8.415 29.715 8.985 29.13L10.575 27.54Z" fill="#FC7324"/>
</g>
<defs>
<clipPath id="clip0_234_1762">
<rect width="36" height="36" fill="white"/>
</clipPath>
</defs>
</svg>
