<svg width="20" height="20" viewBox="0 0 20 20" fill="none" xmlns="http://www.w3.org/2000/svg">
<path d="M17.2299 8.58105H2.77047C2.28536 8.58105 1.89209 8.97432 1.89209 9.45944V19.1216C1.89209 19.6067 2.28536 20 2.77047 20H10.0002C10.4853 20 10.8786 19.6067 10.8786 19.1216V16.3513H13.677C14.8796 16.3513 16.0002 15.8815 16.8325 15.0287C17.6552 14.1856 18.1083 13.059 18.1083 11.8567V9.45944C18.1082 8.97432 17.715 8.58105 17.2299 8.58105ZM16.3515 11.8567C16.3515 13.3919 15.1768 14.5945 13.677 14.5945H10.0002C9.51505 14.5945 9.12179 14.9878 9.12179 15.4729V18.2432H3.64879V10.3378H16.3515V11.8567H16.3515Z" fill="black"/>
<path d="M2.77054 7.90539H7.56785C8.05297 7.90539 8.44623 7.51212 8.44623 7.027V0.878384C8.44616 0.393266 8.0529 0 7.56778 0H2.77047C2.28536 0 1.89209 0.393266 1.89209 0.878384V7.027C1.89216 7.51212 2.28542 7.90539 2.77054 7.90539ZM3.64886 1.75677H6.6894V6.14869H3.64886V1.75677Z" fill="black"/>
</svg>
