<svg width="22" height="22" viewBox="0 0 22 22" fill="none" xmlns="http://www.w3.org/2000/svg">
<path d="M21.2534 2.71668C20.8411 2.71668 20.5068 3.05097 20.5068 3.4633V3.47851C20.5009 3.47839 20.4951 3.47761 20.4892 3.47761H18.0284V2.82182C18.0284 2.40949 17.6941 2.0752 17.2818 2.0752H4.71828C4.30595 2.0752 3.97165 2.40949 3.97165 2.82182V3.47761H1.4933V3.46326C1.4933 3.05093 1.159 2.71663 0.746669 2.71663C0.334298 2.71668 0 3.05097 0 3.4633V4.9853C0 5.39767 0.334298 5.73197 0.746626 5.73197C1.15896 5.73197 1.49325 5.39767 1.49325 4.98535V4.97095H3.97161V19.178C3.97161 19.5904 4.30591 19.9247 4.71824 19.9247H17.2818C17.6941 19.9247 18.0284 19.5904 18.0284 19.178V4.97095H20.4891C20.4951 4.97095 20.5008 4.97022 20.5067 4.97005V4.98526C20.5067 5.39759 20.841 5.73189 21.2533 5.73189C21.6657 5.73189 22 5.39759 22 4.98526V3.4633C22 3.05097 21.6657 2.71668 21.2534 2.71668ZM16.5351 18.4314H5.46486V15.9145C5.48549 15.9161 5.50616 15.9176 5.52725 15.9176H16.4727C16.4938 15.9176 16.5145 15.9161 16.5351 15.9145V18.4314H16.5351ZM16.5351 14.4274C16.5145 14.4258 16.4938 14.4243 16.4727 14.4243H5.52725C5.5062 14.4243 5.48549 14.4258 5.46486 14.4274V3.56849H16.5351V14.4274Z" fill="black"/>
</svg>
