<svg width="20" height="20" viewBox="0 0 20 20" fill="none" xmlns="http://www.w3.org/2000/svg">
<g clip-path="url(#clip0_430_1038)">
<path d="M19.1303 0H0.869473C0.509277 0 0.217285 0.291992 0.217285 0.652187V16.7391V19.3479C0.217285 19.708 0.509277 20 0.869473 20H3.47818C3.83834 20 4.13037 19.708 4.13037 19.3479V17.3913H15.8695V19.3479C15.8695 19.708 16.1615 20 16.5217 20H19.1304C19.4906 20 19.7826 19.708 19.7826 19.3479V16.7391V0.652187C19.7825 0.291992 19.4905 0 19.1303 0ZM2.826 18.6957H1.52166V17.3913H2.826V18.6957ZM9.34771 16.087H3.47818H1.52166V6.08695H9.34775V16.087H9.34771ZM18.4781 18.6957H17.1738V17.3913H18.4781V18.6957ZM18.4781 16.087H16.5216H10.6521V6.08695H18.4782V16.087H18.4781ZM18.4781 4.78262H1.52166V1.30434H18.4782V4.78262H18.4781Z" fill="black"/>
<path d="M7.39145 11.3044C7.75164 11.3044 8.04363 11.0124 8.04363 10.6522C8.04363 10.292 7.75164 10 7.39145 10C7.03125 10 6.73926 10.292 6.73926 10.6522C6.73926 11.0124 7.03125 11.3044 7.39145 11.3044Z" fill="black"/>
<path d="M12.6087 11.3044C12.9689 11.3044 13.2609 11.0124 13.2609 10.6522C13.2609 10.292 12.9689 10 12.6087 10C12.2485 10 11.9565 10.292 11.9565 10.6522C11.9565 11.0124 12.2485 11.3044 12.6087 11.3044Z" fill="black"/>
</g>
<defs>
<clipPath id="clip0_430_1038">
<rect width="20" height="20" fill="white"/>
</clipPath>
</defs>
</svg>
