<svg width="20" height="20" viewBox="0 0 20 20" fill="none" xmlns="http://www.w3.org/2000/svg">
<g clip-path="url(#clip0_432_1385)">
<path d="M16.8865 0H3.11399C1.74029 0 0.622559 1.11773 0.622559 2.49143V17.5086C0.622559 18.8823 1.74029 20 3.11399 20H16.8859C18.2593 20 19.377 18.8823 19.377 17.5086V2.49143C19.3776 1.11773 18.2596 0 16.8865 0ZM3.11399 1.80473H16.8859C17.2649 1.80473 17.5723 2.11274 17.5723 2.49143V3.87084H2.42759V2.49143C2.42759 2.11304 2.73559 1.80473 3.11399 1.80473ZM16.8865 18.1953H3.11399C2.73529 18.1953 2.42729 17.8873 2.42729 17.5086V5.67557H17.5726V17.5086C17.5729 17.8873 17.2646 18.1953 16.8865 18.1953Z" fill="black"/>
<path d="M9.92489 6.75C7.22201 6.75 5.02295 8.94906 5.02295 11.6516C5.02295 14.3545 7.22201 16.5539 9.92489 16.5539C12.6278 16.5539 14.8268 14.3545 14.8268 11.6516C14.8268 8.94906 12.6278 6.75 9.92489 6.75ZM9.92489 14.7489C8.21702 14.7489 6.82768 13.3595 6.82768 11.6516C6.82768 9.94377 8.21702 8.55443 9.92489 8.55443C11.6328 8.55443 13.0221 9.94377 13.0221 11.6516C13.0221 13.3595 11.6328 14.7489 9.92489 14.7489Z" fill="black"/>
</g>
<defs>
<clipPath id="clip0_432_1385">
<rect width="20" height="20" fill="white"/>
</clipPath>
</defs>
</svg>
