<svg width="36" height="36" viewBox="0 0 36 36" fill="none" xmlns="http://www.w3.org/2000/svg">
<path d="M25.5 25.4852C23.475 25.4852 22.2 26.1152 21.075 26.6852C20.1 27.1802 19.305 27.5852 18 27.5852C16.65 27.5852 15.9 27.2102 14.925 26.6852C13.8 26.1152 12.57 25.4852 10.5 25.4852C8.43 25.4852 7.2 26.1152 6.075 26.6852C5.1 27.1802 4.32 27.5852 3 27.5852V30.5102C5.025 30.5102 6.3 29.8802 7.425 29.3102C8.4 28.8152 9.18 28.4102 10.5 28.4102C11.82 28.4102 12.6 28.7852 13.575 29.3102C14.7 29.8802 15.93 30.5102 18 30.5102C20.07 30.5102 21.3 29.8802 22.425 29.3102C23.4 28.8152 24.195 28.4102 25.5 28.4102C26.85 28.4102 27.6 28.7852 28.575 29.3102C29.7 29.8802 30.945 30.5102 33 30.5102V27.5852C31.65 27.5852 30.9 27.2102 29.925 26.6852C28.8 26.1152 27.525 25.4852 25.5 25.4852ZM25.5 18.8102C23.475 18.8102 22.2 19.4552 21.075 20.0102C20.1 20.4902 19.305 20.9102 18 20.9102C16.65 20.9102 15.9 20.5352 14.925 20.0102C13.8 19.4402 12.57 18.8102 10.5 18.8102C8.43 18.8102 7.2 19.4552 6.075 20.0102C5.1 20.4902 4.32 20.9102 3 20.9102V23.8352C5.025 23.8352 6.3 23.1902 7.425 22.6352C8.4 22.1102 9.15 21.7352 10.5 21.7352C11.85 21.7352 12.6 22.1102 13.575 22.6352C14.7 23.2052 15.93 23.8352 18 23.8352C20.07 23.8352 21.3 23.1902 22.425 22.6352C23.4 22.1102 24.15 21.7352 25.5 21.7352C26.85 21.7352 27.6 22.1102 28.575 22.6352C29.7 23.2052 30.945 23.8352 33 23.8352V20.9102C31.65 20.9102 30.9 20.5352 29.925 20.0102C28.8 19.4402 27.525 18.8102 25.5 18.8102ZM29.925 6.69023C28.8 6.12023 27.555 5.49023 25.5 5.49023C23.445 5.49023 22.2 6.12023 21.075 6.69023C20.1 7.17023 19.305 7.59023 18 7.59023C16.65 7.59023 15.9 7.21523 14.925 6.69023C13.8 6.13523 12.57 5.49023 10.5 5.49023C8.43 5.49023 7.2 6.12023 6.075 6.69023C5.1 7.18523 4.32 7.59023 3 7.59023V10.4852C5.025 10.4852 6.3 9.84023 7.425 9.28523C8.4 8.79023 9.18 8.38523 10.5 8.38523C11.82 8.38523 12.6 8.76023 13.575 9.28523C14.7 9.85523 15.93 10.4852 18 10.4852C20.07 10.4852 21.3 9.84023 22.425 9.28523C23.4 8.80523 24.195 8.38523 25.5 8.38523C26.85 8.38523 27.6 8.76023 28.575 9.28523C29.7 9.85523 30.945 10.4852 33 10.4852V7.56023C31.65 7.56023 30.9 7.18523 29.925 6.69023ZM25.5 12.1352C23.475 12.1352 22.2 12.7802 21.075 13.3352C20.1 13.8602 19.35 14.2352 18 14.2352C16.65 14.2352 15.9 13.8602 14.925 13.3352C13.8 12.7652 12.57 12.1352 10.5 12.1352C8.43 12.1352 7.2 12.7802 6.075 13.3352C5.1 13.8602 4.35 14.2352 3 14.2352V17.1602C5.025 17.1602 6.3 16.5152 7.425 15.9602C8.4 15.4802 9.195 15.0602 10.5 15.0602C11.805 15.0602 12.6 15.4352 13.575 15.9602C14.7 16.5302 15.93 17.1602 18 17.1602C20.07 17.1602 21.3 16.5152 22.425 15.9602C23.4 15.4802 24.195 15.0602 25.5 15.0602C26.85 15.0602 27.6 15.4352 28.575 15.9602C29.7 16.5302 30.945 17.1602 33 17.1602V14.2352C31.65 14.2352 30.9 13.8602 29.925 13.3352C28.8 12.7652 27.525 12.1352 25.5 12.1352Z" fill="#FC7324"/>
</svg>
